<?xml version="1.0" encoding="UTF-8"?><svg xmlns="http://www.w3.org/2000/svg" viewBox="0 0 830 304"><defs><style>.cls-1{fill:#f58fad;}.cls-2{fill:#f9eabe;}.cls-3{fill:#6977f4;}.cls-4{fill:#f26608;}.cls-5{fill:#f2854e;}.cls-6{fill:#f27108;}.cls-7{fill:#ea496c;}.cls-8{fill:#f5564e;}.cls-9{fill:#fff;}.cls-10{fill:#ffe2c0;}.cls-11{fill:#f74f84;}.cls-12{fill:#fff5dc;}.cls-13{fill:#fff3d4;}.cls-14{fill:#ffd99c;}.cls-15{fill:#f2d5b1;}.cls-16{fill:#f4516d;}.cls-17{fill:#ffb32c;}.cls-18{fill:#ffc466;}.cls-19{fill:#e7907f;}.cls-20{fill:#fc6965;}.cls-21{fill:#ff7c06;}.cls-22{fill:#ff5f89;}.cls-23{fill:#ff6e8d;}.cls-24{fill:#ff9052;}.cls-25{fill:#919191;}.cls-26{fill:#663a2c;}.cls-27{fill:#684766;}.cls-28{fill:#8c352f;}.cls-29{fill:#a32f2f;}.cls-30{fill:#874038;}.cls-31{fill:#914c3c;}.cls-32{fill:#b53535;}.cls-33{fill:#b75e55;}.cls-34{fill:#33160b;}.cls-35{fill:#aa3400;}.cls-36{fill:#c13838;}.cls-37{fill:#a5504c;}.cls-38{fill:#aa5949;}.cls-39{fill:#c4675b;}.cls-40{fill:#c1655b;}.cls-41{fill:#c15c08;}.cls-42{fill:#d88061;}.cls-43{fill:#db8479;}.cls-44{fill:#bf6b60;}.cls-45{fill:#c40;}.cls-46{fill:#d1796a;}.cls-47{fill:#c95100;}.cls-48{fill:#dc7400;}.cls-49{fill:#c47065;}.cls-50{fill:#d66b00;}.cls-51{fill:#e26b00;}.cls-52{fill:#c97257;}.cls-53{fill:#d85700;}.cls-54{fill:#42210b;}.cls-55{fill:#160700;}.cls-56{fill:#a35346;}.cls-57{fill:#724e6e;}.cls-58{fill:#964b45;}.cls-59{fill:#965344;}.cls-60{fill:#542f1f;}.cls-61{fill:#6d5351;}.cls-62{fill:#5b9952;}.cls-63{fill:#5b4840;}.cls-64{fill:#558c4b;}.cls-65{fill:#383838;}.cls-66{fill:#4c2a1e;}.cls-67{fill:#755442;}.cls-68{fill:#28292b;}.cls-69{fill:#7a4934;}.cls-70{fill:#4f342f;}.cls-71{fill:none;stroke:#28292b;stroke-miterlimit:10;}.cls-72{opacity:.65;}.cls-73{fill:#4553db;}.cls-73,.cls-74{opacity:.6;}.cls-74{fill:#565656;}.cls-75{fill:#db6963;opacity:.5;}.cls-76{fill:#ffc36c;opacity:.75;}</style></defs><g id="Layer_5"><path class="cls-65" d="M176.63,10.91h476.74c27.84,0,50.44,22.6,50.44,50.44v200.44H126.19V61.35c0-27.84,22.6-50.44,50.44-50.44Z"/><g class="cls-72"><g><path class="cls-68" d="M404.78,57.42c0,.46-10.24,29.56-10.24,29.56h-12.5v13.18h8.86v19.27h-4.78v5.88c-28.66,8.39-49.67,28.93-52.72,53.56-.6-2.72-3.13-4.76-6.16-4.76h0c-3.48,0-6.29,2.69-6.29,6.01v36.96h.99c-23.72,2.69-38.85,6.39-40.14,10.51h-.1v3.43c-28.92,2.63-47.15,6.13-48.81,9.98h-.14v7.81c-44.85,2.68-76.05,10.39-76.05,10.39,0,0,516.59,.91,516.59,.57,0-4.29-29.08-8.17-76.05-10.97,0-4.16,0-7.13,0-7.23,0-4.08-18.58-7.79-48.94-10.55,0-1.72,0-2.8,0-2.86,0-4.34-15.42-8.27-40.24-11.08h.99v-36.96c0-3.32-2.82-6.01-6.29-6.01-3.18,0-5.81,2.26-6.23,5.18-2.86-24.79-23.89-45.49-52.65-53.95v-5.91h-4.78v-19.27h8.86v-13.18h-14.02l-8.51-29.82-20.65,.26Z"/><path class="cls-68" d="M400.6,34.33h20.04c4.57,0,8.29,3.71,8.29,8.29v20.04h-20.04c-4.57,0-8.29-3.71-8.29-8.29v-20.04h0Z" transform="translate(155.77 -279.08) rotate(45)"/></g><g><polygon class="cls-68" points="688.05 124.65 697.19 123.58 696.14 112.82 687 113.89 688.05 124.65"/><polygon class="cls-68" points="673.32 125.59 682.5 125.03 681.97 114.22 672.8 114.78 673.32 125.59"/><polygon class="cls-68" points="658.57 125.76 667.76 125.54 667.58 114.72 658.4 114.93 658.57 125.76"/><polygon class="cls-68" points="644.9 125.21 654.08 125.67 654.61 114.86 645.44 114.39 644.9 125.21"/><polygon class="cls-68" points="631.28 124.23 640.46 124.7 640.99 113.89 631.81 113.42 631.28 124.23"/><polygon class="cls-68" points="616.45 122.63 625.59 123.6 626.65 112.83 617.51 111.86 616.45 122.63"/><polygon class="cls-68" points="601.89 120.42 610.99 121.74 612.41 111.01 603.31 109.7 601.89 120.42"/><path class="cls-71" d="M414.94,29.14s135.11,104.03,288.85,82.54"/><polygon class="cls-68" points="588.72 118.32 597.8 119.78 599.37 109.08 590.29 107.61 588.72 118.32"/><polygon class="cls-68" points="575.36 115.27 584.31 117.41 586.58 106.85 577.62 104.71 575.36 115.27"/><polygon class="cls-68" points="562.1 111.82 571.06 113.96 573.32 103.39 564.36 101.26 562.1 111.82"/><polygon class="cls-68" points="547.76 107.53 556.6 110.16 559.38 99.73 550.54 97.1 547.76 107.53"/><polygon class="cls-68" points="533.91 103.21 542.65 106.17 545.77 95.85 537.03 92.89 533.91 103.21"/><polygon class="cls-68" points="520.38 98.07 529.13 101 532.21 90.67 523.46 87.74 520.38 98.07"/><polygon class="cls-68" points="507.8 93.16 516.51 96.24 519.74 85.96 511.03 82.89 507.8 93.16"/><polygon class="cls-68" points="494.94 87.5 503.42 91.21 507.31 81.19 498.83 77.48 494.94 87.5"/><polygon class="cls-68" points="482.13 81.64 490.62 85.35 494.51 75.33 486.02 71.62 482.13 81.64"/><polygon class="cls-68" points="469.36 75.25 477.65 79.43 482.02 69.64 473.73 65.46 469.36 75.25"/><polygon class="cls-68" points="456.58 68.13 464.73 72.62 469.42 62.99 461.27 58.51 456.58 68.13"/><polygon class="cls-68" points="443.79 61.02 451.94 65.51 456.63 55.88 448.49 51.39 443.79 61.02"/><polygon class="cls-68" points="431.73 54.09 439.88 58.58 444.57 48.96 436.42 44.47 431.73 54.09"/><polygon class="cls-68" points="703.81 111.71 700.46 112.1 701.52 122.86 703.81 122.6 703.81 111.71"/></g><g><polygon class="cls-68" points="684.5 48.51 691.61 44.44 687.78 34.62 680.67 38.69 684.5 48.51"/><polygon class="cls-68" points="672.89 53.49 680.32 50.33 677.3 40.11 669.88 43.26 672.89 53.49"/><polygon class="cls-68" points="662 58.34 669.42 55.18 666.4 44.96 658.98 48.11 662 58.34"/><polygon class="cls-68" points="649.88 62.66 657.44 59.99 654.85 49.6 647.3 52.26 649.88 62.66"/><polygon class="cls-68" points="637.58 66.23 645.22 63.89 642.93 53.41 635.29 55.74 637.58 66.23"/><polygon class="cls-68" points="626.06 68.85 633.82 67.18 632.12 56.54 624.36 58.21 626.06 68.85"/><polygon class="cls-68" points="614.48 71.06 622.24 69.39 620.54 58.74 612.78 60.41 614.48 71.06"/><polygon class="cls-68" points="601.77 72.92 609.6 71.76 608.35 61.04 600.52 62.2 601.77 72.92"/><polygon class="cls-68" points="589.18 74.14 597.04 73.32 596.09 62.56 588.23 63.38 589.18 74.14"/><path class="cls-71" d="M414.86,28.55s149.2,78.18,278.84,2.61"/><polygon class="cls-68" points="577.75 75.14 585.62 74.47 584.81 63.69 576.94 64.36 577.75 75.14"/><polygon class="cls-68" points="565.98 75.27 573.89 75.27 573.68 64.47 565.77 64.47 565.98 75.27"/><polygon class="cls-68" points="554.22 74.97 562.13 74.98 561.92 64.18 554.01 64.17 554.22 74.97"/><polygon class="cls-68" points="541.39 74.11 549.3 74.63 549.55 63.84 541.64 63.32 541.39 74.11"/><polygon class="cls-68" points="528.96 73.11 536.85 73.97 537.41 63.21 529.51 62.35 528.96 73.11"/><polygon class="cls-68" points="516.63 71.24 524.53 72.06 525.05 61.3 517.16 60.48 516.63 71.24"/><polygon class="cls-68" points="505.15 69.37 513.04 70.35 513.7 59.6 505.81 58.63 505.15 69.37"/><polygon class="cls-68" points="493.28 66.84 501.11 68.49 502.37 57.84 494.54 56.19 493.28 66.84"/><polygon class="cls-68" points="481.41 64.1 489.24 65.75 490.5 55.1 482.68 53.45 481.41 64.1"/><polygon class="cls-68" points="469.47 60.84 477.23 62.99 478.94 52.45 471.19 50.3 469.47 60.84"/><polygon class="cls-68" points="457.38 56.86 465.08 59.34 467.09 48.9 459.4 46.41 457.38 56.86"/><polygon class="cls-68" points="445.29 52.89 452.99 55.38 455 44.93 447.3 42.45 445.29 52.89"/><polygon class="cls-68" points="433.84 48.95 441.54 51.43 443.55 40.98 435.85 38.5 433.84 48.95"/><path class="cls-68" d="M693.94,31.38l-2.78,1.59,3.83,9.82,4.24-2.43c-1.46-3.18-3.23-6.19-5.3-8.98Z"/></g><g><polygon class="cls-68" points="141.95 124.65 132.81 123.58 133.87 112.82 143.01 113.89 141.95 124.65"/><polygon class="cls-68" points="156.68 125.59 147.51 125.03 148.03 114.22 157.21 114.78 156.68 125.59"/><polygon class="cls-68" points="171.44 125.76 162.25 125.54 162.42 114.72 171.61 114.93 171.44 125.76"/><polygon class="cls-68" points="185.1 125.21 175.93 125.67 175.39 114.86 184.57 114.39 185.1 125.21"/><polygon class="cls-68" points="198.73 124.23 189.55 124.7 189.02 113.89 198.19 113.42 198.73 124.23"/><polygon class="cls-68" points="213.56 122.63 204.42 123.6 203.36 112.83 212.5 111.86 213.56 122.63"/><polygon class="cls-68" points="228.11 120.42 219.01 121.74 217.6 111.01 226.7 109.7 228.11 120.42"/><path class="cls-71" d="M415.06,29.14S279.95,133.17,126.22,111.68"/><polygon class="cls-68" points="241.29 118.32 232.21 119.78 230.64 109.08 239.72 107.61 241.29 118.32"/><polygon class="cls-68" points="254.65 115.27 245.69 117.41 243.43 106.85 252.39 104.71 254.65 115.27"/><polygon class="cls-68" points="267.9 111.82 258.95 113.96 256.68 103.39 265.64 101.26 267.9 111.82"/><polygon class="cls-68" points="282.24 107.53 273.41 110.16 270.63 99.73 279.47 97.1 282.24 107.53"/><polygon class="cls-68" points="296.1 103.21 287.35 106.17 284.24 95.85 292.98 92.89 296.1 103.21"/><polygon class="cls-68" points="309.63 98.07 300.87 101 297.79 90.67 306.55 87.74 309.63 98.07"/><polygon class="cls-68" points="322.21 93.16 313.49 96.24 310.26 85.96 318.97 82.89 322.21 93.16"/><polygon class="cls-68" points="335.07 87.5 326.58 91.21 322.69 81.19 331.18 77.48 335.07 87.5"/><polygon class="cls-68" points="347.88 81.64 339.39 85.35 335.5 75.33 343.99 71.62 347.88 81.64"/><polygon class="cls-68" points="360.65 75.25 352.36 79.43 347.98 69.64 356.27 65.46 360.65 75.25"/><polygon class="cls-68" points="373.43 68.13 365.28 72.62 360.59 62.99 368.73 58.51 373.43 68.13"/><polygon class="cls-68" points="386.21 61.02 378.07 65.51 373.37 55.88 381.52 51.39 386.21 61.02"/><polygon class="cls-68" points="398.28 54.09 390.13 58.58 385.44 48.96 393.58 44.47 398.28 54.09"/><polygon class="cls-68" points="126.2 111.71 129.54 112.1 128.49 122.86 126.2 122.6 126.2 111.71"/></g><g><polygon class="cls-68" points="145.51 48.51 138.4 44.44 142.23 34.62 149.34 38.69 145.51 48.51"/><polygon class="cls-68" points="157.11 53.49 149.69 50.33 152.71 40.11 160.13 43.26 157.11 53.49"/><polygon class="cls-68" points="168.01 58.34 160.58 55.18 163.6 44.96 171.03 48.11 168.01 58.34"/><polygon class="cls-68" points="180.13 62.66 172.57 59.99 175.15 49.6 182.71 52.26 180.13 62.66"/><polygon class="cls-68" points="192.42 66.23 184.79 63.89 187.08 53.41 194.71 55.74 192.42 66.23"/><polygon class="cls-68" points="203.95 68.85 196.19 67.18 197.89 56.54 205.65 58.21 203.95 68.85"/><polygon class="cls-68" points="215.52 71.06 207.76 69.39 209.47 58.74 217.22 60.41 215.52 71.06"/><polygon class="cls-68" points="228.23 72.92 220.4 71.76 221.66 61.04 229.48 62.2 228.23 72.92"/><polygon class="cls-68" points="240.83 74.14 232.97 73.32 233.91 62.56 241.78 63.38 240.83 74.14"/><path class="cls-71" d="M415.15,28.55s-149.2,78.18-278.84,2.61"/><polygon class="cls-68" points="252.26 75.14 244.38 74.47 245.19 63.69 253.07 64.36 252.26 75.14"/><polygon class="cls-68" points="264.02 75.27 256.12 75.27 256.32 64.47 264.23 64.47 264.02 75.27"/><polygon class="cls-68" points="275.78 74.97 267.88 74.98 268.08 64.18 275.99 64.17 275.78 74.97"/><polygon class="cls-68" points="288.62 74.11 280.71 74.63 280.46 63.84 288.37 63.32 288.62 74.11"/><polygon class="cls-68" points="301.05 73.11 293.15 73.97 292.6 63.21 300.49 62.35 301.05 73.11"/><polygon class="cls-68" points="313.37 71.24 305.48 72.06 304.95 61.3 312.85 60.48 313.37 71.24"/><polygon class="cls-68" points="324.86 69.37 316.97 70.35 316.31 59.6 324.2 58.63 324.86 69.37"/><polygon class="cls-68" points="336.73 66.84 328.9 68.49 327.64 57.84 335.47 56.19 336.73 66.84"/><polygon class="cls-68" points="348.59 64.1 340.77 65.75 339.5 55.1 347.33 53.45 348.59 64.1"/><polygon class="cls-68" points="360.53 60.84 352.77 62.99 351.06 52.45 358.82 50.3 360.53 60.84"/><polygon class="cls-68" points="372.62 56.86 364.92 59.34 362.91 48.9 370.61 46.41 372.62 56.86"/><polygon class="cls-68" points="384.72 52.89 377.02 55.38 375.01 44.93 382.7 42.45 384.72 52.89"/><polygon class="cls-68" points="396.17 48.95 388.47 51.43 386.46 40.98 394.16 38.5 396.17 48.95"/><path class="cls-68" d="M136.07,31.38l2.78,1.59-3.83,9.82-4.24-2.43c1.46-3.18,3.23-6.19,5.3-8.98Z"/></g></g></g><g id="Layer_1"><path class="cls-30" d="M6.1,257.02H823.33v3.15c0,24.28-19.71,43.99-43.99,43.99H50.09c-24.28,0-43.99-19.71-43.99-43.99v-3.15h0Z" transform="translate(829.43 561.18) rotate(-180)"/><path d="M504.61,235.13l1.37,6.73,4.99-1.84-1.1,7.48,5.67-.41-1.72,3.36c-1.97,3.74-5.36,6.66-9.95,6.62l-3.82-.05-5.1-.04,9.65-21.85Z"/><g><path class="cls-29" d="M609.45,234.69l.18-.05c6.2-1.67,12.65,1.61,15.14,7.69h0c2.01,4.91,.97,10.57-2.63,14.39l-.47,.49h-136.22s-.76-.65-.76-.65c-5.33-4.55-6.29-12.59-2.18-18.33h0c3.22-4.5,8.8-6.48,14.03-4.99l3.41,.98,109.49,.47Z"/><path d="M495,233.32l.27-.08s2.69,3.16,4.17,6.94c.06,.15-1.74,2.63-1.74,2.63l-2.7-9.49Z"/><path d="M561.35,230.85l-3.91-1.12c-5.99-1.71-12.4,.56-16.08,5.72h0c-4.71,6.58-3.61,15.8,2.5,21.01l.88,.75,16.27-.23,.35-26.13Z"/><path d="M492.74,232.52l3.26,2.21c2.83,1.92,6.13,3,9.54,3.12l18.77,.68,5.42,4.83,19.62-1.68,2.46-14.39-59.08,5.24Z"/><path class="cls-21" d="M556.08,237.67h32.56s18.78,3.95,20.77-19.58-8.85-41.41-8.85-41.41h-47.24s-5.3,14.67-5.3,14.67l-43.4,3.49c-10.11,.81-17.93,9.58-17.99,20.15h0c-.05,10.35,7.36,19.09,17.22,20.29l52.23,2.38Z"/><path class="cls-6" d="M563.82,237.17c-5.08-.68-9.59-3.98-12.43-8.25-2.84-4.27-4.13-9.42-4.46-14.53-.34-5.38,.39-10.98,3.13-15.62l14.99,5.91,4.14,30.57-5.38,1.92Z"/><path class="cls-40" d="M541.93,96.86l3.14-8.33c.37-.87-2.26-10.25,1.45-15.17,4.86-6.44,15.5-10.83,25.28-7.65,9.78,3.18,16.21,12.23,12.33,24.07-1,3.06-2.19,5.25-3.2,7.56-1.45,3.31-1.58,9.08,.86,11.47,2.28,2.25,9.62,7.28,9.62,7.28l-39.61,32.64-1.69-10.74-.22-3.49c-.11-5.81,3.16-8.94,7.66-13.37l4.16-3.64-1.79-4.85c-2.25,.66-4.96,2.34-9.22,.73-6.27-2.36-5.08-13.5-5.08-13.5l-2.14-.31c-1.29-.19-2.05-1.52-1.55-2.7Z"/><path class="cls-33" d="M588.81,114.26l-4.57,2.24c-2.86-.46-5.31-2.8-5.91-5.63-.85-4.04,1.8-8.03,1.75-12.15l.27,.38c-.83,3.31-.6,7.69,1.44,9.71,1.39,1.37,4.67,3.78,7.02,5.45Z"/><path class="cls-33" d="M520.17,128.22c.64-.68,1.71-.69,2.37-.04l.7,.68-2.48-2.6c-.6-.64-.6-1.61,0-2.24,.65-.68,1.77-.72,2.48-.08l1.59,1.46c-.5-.6-.51-1.47-.01-2.09,.58-.71,1.63-.81,2.34-.22l2.4,2.02,.04-.07,8.37,7.18-1.66-1.67c-.72-.73-.83-1.87-.26-2.72,.22-.33,.67-.43,1.01-.23l7.47,4.43c.41,.24,.74,.58,.98,.99,.69,1.18,2.09,3.81,2.52,6.48,.47,2.85,1.67,6.63,2.15,8.08l.56-.4,11.99,14.88c1.46,1.82,2.02,4.2,1.51,6.48l-1.41,6.29c-.83,3.69-4.23,6.22-8.01,5.95-3.02-.21-5.62-2.18-6.65-5.02l-7.8-19.36-.58-.98-5.84-2.29c-3.01-1.27-5.5-3.53-7.06-6.4l-6.31-11.57c-.31-.57-.21-1.28,.26-1.74,.45-.44,1.09-.52,1.62-.28l-2.35-2.7c-.56-.65-.54-1.62,.05-2.25Z"/><path d="M523.55,134.38s3.95,8.46,5.27,11.4c1.23,2.75,3.35,4.94,6.05,5.95l6.2,2.41,8.54,9.71,.94-14.45-27-15.02Z"/><polygon class="cls-21" points="600.12 186.04 601.83 139.14 589.5 122.5 563.2 124.16 549.75 134.55 550.85 186.04 553.9 186.04 600.12 186.04"/><path class="cls-51" d="M499.28,223.38l.23-1.86c1.59-13.06,10.61-24.02,23.13-28.08l13.81-4.47c7.89-2.56,10.67-11.31,11.88-19.51l1.69-9.3,16.61,11.01-2.35,17.93c-.96,7.31-6.85,12.99-14.19,13.68l-7.26,.68c-10.41,.74-18.62,9.16-19.1,19.59h0s-5.49-.17-5.49-.17l-.17,5.32-16.96-.67,.17-3.66-2-.5Z"/><path d="M547.05,174.95l1.49-6.79,5.84,7.43s.01,4.94-.25,7.4c-.92,8.43-7.78,16.07-19.18,16.07h-11.79c-11.4,0-20.64-8.58-20.64-19.17v-3.86s44.54-1.08,44.54-1.08Z"/><path class="cls-45" d="M521.77,175.4h11.15c10.77,0,19.52,8.75,19.52,19.52v3.93h-50.19v-3.93c0-10.77,8.75-19.52,19.52-19.52Z" transform="translate(1054.68 374.24) rotate(-180)"/><polygon class="cls-25" points="507.36 169.15 502.25 175.4 552.44 175.4 547.52 169 507.36 169.15"/><polygon class="cls-53" points="600.49 176.7 601.14 158.29 581.73 162.23 581.16 175.02 600.49 176.7"/><path d="M555.21,164.89l14.14,13.93c8.43,7.68,22.19,3.77,24.86-7.58l2.66-11.21-41.66,4.86Z"/><path class="cls-40" d="M601.45,138.99l-7.4,28.84c-2.16,7.65-9.28,12.81-17.22,12.49h0c-4.16-.17-8.12-1.85-11.13-4.73l-20.55-19.6,7.1-12.18,20.1,10.78,5.97-22.57,23.13,6.96Z"/><path class="cls-40" d="M522.24,125.67c.64-.68,1.71-.69,2.37-.04l.7,.68-2.48-2.6c-.6-.64-.6-1.61,0-2.24,.66-.68,1.77-.72,2.48-.08l1.59,1.46c-.5-.6-.51-1.47-.01-2.09,.58-.71,1.63-.81,2.34-.22l2.4,2.02,8.57,7.71-1.82-1.69c-.72-.73-.83-2.45-.25-3.3h0c.22-.33,.67-.43,1.01-.23l7.47,4.43c.41,.24,.74,.58,.98,.99,.69,1.18,1.76,3.37,2.2,6.04,.31,1.93,.56,3.29,.9,4.89,.29,1.38,1.69,2.44,1.69,2.44l-6.34,12.97-4.18-3.94-5.84-2.29c-3.01-1.27-5.5-3.53-7.06-6.4l-6.31-11.57c-.31-.57-.21-1.28,.26-1.74,.45-.44,1.09-.52,1.62-.28l-2.35-2.7c-.56-.65-.54-1.62,.05-2.25Z"/><path d="M545.97,135.68c.1,0,.2-.04,.28-.12,.14-.15,.13-.39-.03-.53l-7.76-7c-.15-.14-.39-.13-.53,.03-.14,.15-.13,.39,.03,.53l7.76,7c.07,.06,.16,.1,.25,.1Z"/><path d="M537.09,132.87c.1,0,.2-.04,.27-.12,.14-.15,.13-.39-.02-.53l-9.88-9.24c-.15-.14-.39-.13-.53,.02-.14,.15-.13,.39,.02,.53l9.88,9.24c.07,.07,.16,.1,.26,.1Z"/><path d="M534.12,136.12c.09,0,.19-.03,.26-.1,.15-.14,.16-.38,.01-.53l-9.31-9.77c-.14-.15-.38-.16-.53-.01-.15,.14-.16,.38-.01,.53l9.31,9.77c.07,.08,.17,.12,.27,.12Z"/><path d="M530.93,138.81c.08,0,.17-.03,.24-.09,.16-.13,.18-.37,.05-.53l-6.24-7.45c-.13-.16-.37-.18-.53-.05-.16,.13-.18,.37-.05,.53l6.24,7.45c.07,.09,.18,.13,.29,.13Z"/><path class="cls-39" d="M569.47,88.87l2.24-2.27c1.75-1.76,4.55-1.88,6.44-.27h0c1.72,1.46,1.83,3.79,1.07,5.91-.49,1.36-.96,2.52-2.4,4.32-1.12,1.4-2.76,2.26-4.44,1.62h0c-1.28-.49-2.18-1.66-2.31-3.03l-.6-6.28Z"/><path class="cls-39" d="M554.87,238.01l-20.78,5.8c-.97,.27-2.01-.12-2.56-.96l-.12-.19h0c-.96,.21-1.96-.2-2.48-1.04l-.24-.39-.37-.02c-.96-.04-1.8-.67-2.1-1.58l-.35-1.05h-.09c-.92,.13-1.77-.47-1.98-1.37h0c-.22-.96,.37-1.93,1.34-2.16l2.19-.52-2.3,.27c-.4,.05-.8,.03-1.19-.04l-.28-.05c-1.85-.35-3.19-1.96-3.2-3.84h0c-.01-1.4,.73-2.71,1.94-3.42l1.19-.7c.6-.35,1.28-.54,1.97-.55l9.66-.08,19.78,11.89Z"/><g><path d="M569.75,204.52c.05,0,.11-.01,.16-.04,2.58-1.23,5.55-1.62,8.35-1.11,.22,.04,.4-.1,.44-.3,.04-.2-.1-.4-.3-.44-2.97-.54-6.09-.12-8.81,1.17-.19,.09-.27,.31-.18,.5,.06,.13,.2,.21,.34,.21Z"/><path d="M555.76,238.48c.13,0,.25-.06,.32-.18,.11-.18,.05-.41-.13-.51l-20.65-12.42c-.18-.11-.41-.05-.51,.13-.11,.18-.05,.41,.13,.51l20.65,12.42c.06,.04,.13,.05,.19,.05Z"/><path d="M533.57,242.14c.09,0,.19-.04,.26-.11,.15-.15,.15-.38,0-.53-5.75-5.84-4.13-11.54-4.12-11.59,.06-.2-.05-.41-.25-.47-.2-.06-.41,.05-.47,.25-.08,.25-1.78,6.16,4.3,12.34,.07,.08,.17,.11,.27,.11Z"/><path d="M525.53,239.1s.05,0,.08,0l4.53-.97c.2-.04,.33-.24,.29-.45-.04-.2-.23-.33-.45-.29l-4.53,.97c-.2,.04-.33,.24-.29,.45,.04,.18,.19,.3,.37,.3Z"/><path d="M528.43,241.83s.09,0,.13-.02l3.36-1.27c.19-.07,.29-.29,.22-.48-.07-.19-.29-.29-.48-.22l-3.36,1.27c-.19,.07-.29,.29-.22,.48,.06,.15,.2,.24,.35,.24Z"/><path d="M531.26,243.33c.05,0,.1,0,.15-.03l2.24-.98c.19-.08,.28-.3,.19-.49s-.3-.28-.49-.19l-2.24,.98c-.19,.08-.28,.3-.19,.49,.06,.14,.2,.22,.34,.22Z"/><path d="M525.36,234.98s.08,0,.12-.02c1.08-.37,2.2-.62,3.34-.75,.21-.02,.35-.21,.33-.42-.02-.21-.21-.36-.42-.33-1.19,.14-2.36,.4-3.49,.79-.2,.07-.3,.28-.23,.48,.05,.16,.2,.25,.35,.25Z"/></g><path class="cls-51" d="M552.64,144.09s2.02-19.22,19.35-27.71c14.52-7.12,26.85-2.48,29.07,12.45,1.61,10.84,.88,24.42-.03,29.71-.05,.27-4.65,.82-4.65,.82,0,0-.22-9.09-9.05-11.2-9.44-2.25-14.97,6.46-14.97,6.46l-19.72-10.54Z"/><path d="M600.74,138.39s.03,0,.05,0c.21-.03,.35-.22,.32-.42-.04-.27-.95-6.75-6.21-10.58-3.42-2.49-7.87-3.25-13.22-2.27-.2,.04-.34,.23-.3,.44s.23,.34,.44,.3c5.14-.94,9.4-.22,12.65,2.14,5.01,3.64,5.9,10.01,5.91,10.07,.03,.19,.19,.33,.37,.33Z"/><path d="M565.23,150.78c.14,0,.28-.08,.34-.22,3.86-8.77,9.37-14.25,15.93-15.87,4.93-1.22,8.75,.17,8.79,.18,.19,.07,.41-.03,.48-.22s-.03-.41-.22-.48c-.16-.06-16.08-5.69-25.67,16.09-.08,.19,0,.41,.19,.49,.05,.02,.1,.03,.15,.03Z"/><path class="cls-70" d="M548.78,84.22l3,.28c.71,.06,1.39,.27,1.99,.61l2.4,1.35c.58,.33,1.34,.13,1.64-.41h0c.23-.42,.11-.92-.28-1.23l-2.81-2.17c-.68-.52-1.51-.86-2.39-.97l-3.16-.38c-.97-.12-1.84,.55-1.86,1.42h0c-.01,.77,.63,1.41,1.48,1.49Z"/><path d="M572.34,89.73c.19,0,.36-.15,.37-.34,.08-.85,.63-1.64,1.4-2.01,.77-.37,1.73-.32,2.45,.14,.17,.11,.41,.06,.52-.11,.11-.17,.06-.41-.11-.52-.93-.6-2.18-.67-3.18-.19-1,.49-1.71,1.51-1.81,2.62-.02,.21,.13,.39,.34,.41,.01,0,.02,0,.04,0Z"/><path d="M594.85,166.84c.17,0,.32-.11,.36-.28l4.43-16.59c.05-.2-.07-.41-.27-.46-.2-.05-.41,.07-.46,.27l-4.43,16.59c-.05,.2,.07,.41,.27,.46,.03,0,.06,.01,.1,.01Z"/><path d="M578.23,156.36c.13,0,.26-.07,.33-.2,.1-.18,.03-.41-.16-.51-1.79-.94-3.81-1.44-5.8-1.39-.21,0-.37,.17-.37,.38,0,.21,.17,.37,.37,.37,.06,0,.1,0,.15,0,1.84,0,3.67,.45,5.3,1.31,.06,.03,.12,.04,.17,.04Z"/><path d="M578.39,149.28c-.1,.02,14.7-7.73,17.99,10.08l-1.71,5.98s1.19-19.24-16.28-16.06Z"/><path d="M518.07,228.58c.2,0,.37-.16,.38-.36l.33-7.7c.33-7.68,4.9-14.39,11.92-17.52l2.73-1.22c.19-.08,.27-.31,.19-.5s-.31-.27-.5-.19l-2.73,1.22c-7.28,3.24-12.02,10.21-12.36,18.17l-.33,7.7c0,.21,.15,.38,.36,.39h.02Z"/><path d="M501.11,227.92h0c.21,0,.38-.17,.37-.38,0-.06,0-6.51,1.38-10.33,.07-.2-.03-.41-.22-.48-.2-.08-.41,.03-.48,.22-1.43,3.95-1.43,10.32-1.43,10.59,0,.21,.17,.37,.37,.37Z"/><path d="M559.54,136.49c.14,0,.27-.08,.34-.21,8.55-17.5,26.28-16.83,26.46-16.81,.21,0,.38-.15,.39-.36,.01-.21-.15-.38-.36-.39-.17,0-18.39-.72-27.17,17.23-.09,.19-.01,.41,.17,.5,.05,.03,.11,.04,.17,.04Z"/><g><path class="cls-30" d="M544.87,175.45s-1.48,15.65,9.31,16.92c0,0-4.76-1.48-5.13-16.97l-4.18,.05Z"/><path d="M564.12,174.1l1.57,1.5c.77,.74,1.61,1.39,2.49,1.97-.56,5.59-3.11,15.28-14.11,14.73,0,0,9.38-.66,10.05-18.19Z"/></g><path d="M559.94,112.64s5.73-2.59,10.77-7.53l-8.93,12.49-1.84-4.96Z"/><path d="M545.84,99.01c.19,0,.36-.15,.37-.34,.02-.21-.13-.39-.34-.41-.41-.04-.75-.06-1.1-.09-.33-.02-.65-.05-1.04-.08-.22-.02-.39,.14-.41,.34-.02,.21,.13,.39,.34,.41,.39,.03,.72,.06,1.05,.08,.34,.03,.68,.05,1.08,.09,.01,0,.02,0,.03,0Z"/><path class="cls-37" d="M572.41,95.4c.67,0,3.23-.17,5.74-2.63,1.53-1.49,2.14-3.85,1.57-6.01-.48-1.8-1.68-3.07-3.29-3.48-3.75-.97-5.86,2.3-5.88,2.33-.11,.17-.06,.41,.12,.52,.17,.11,.41,.06,.52-.12,.07-.12,1.86-2.83,5.06-2,1.34,.34,2.35,1.42,2.75,2.95,.51,1.9-.03,3.97-1.37,5.28-2.61,2.56-5.3,2.42-5.33,2.42-.21-.02-.38,.14-.4,.35-.01,.21,.14,.38,.35,.4,.01,0,.07,0,.16,0Z"/><path d="M550.24,89.39c.84,0,1.67-.41,2.12-1.04,.12-.17,.08-.4-.09-.52s-.4-.08-.52,.09c-.3,.44-.9,.72-1.5,.72h-.02c-.61,0-1.21-.31-1.5-.76-.11-.17-.34-.22-.52-.11-.17,.11-.22,.35-.11,.52,.43,.66,1.26,1.09,2.12,1.1h.04Z"/><path d="M548.09,105.08c1.12,0,2.33-.48,3.4-1.43,.16-.14,.17-.37,.03-.53-.14-.16-.37-.17-.53-.03-1.65,1.46-3.64,1.66-4.83,.47-.14-.15-.38-.14-.53,0-.15,.15-.14,.38,0,.53,.67,.67,1.53,.99,2.45,.99Z"/><path class="cls-37" d="M554,107.07c.06,0,.12-.01,.17-.04,.18-.09,.26-.32,.16-.5-1.36-2.63-2.97-5.15-4.8-7.49-.13-.16-.36-.19-.53-.06s-.19,.36-.06,.53c1.8,2.3,3.39,4.78,4.73,7.37,.07,.13,.2,.2,.33,.2Z"/><path class="cls-37" d="M555.01,90.38c.1,0,.2-.04,.28-.12,.14-.15,.13-.39-.03-.53l-1.37-1.24c.48-.21,.98-.36,1.49-.47,.2-.04,.33-.24,.29-.44s-.24-.34-.44-.29c-.76,.16-1.49,.42-2.18,.77l-.48,.25,2.18,1.98c.07,.07,.16,.1,.25,.1Z"/><path class="cls-33" d="M551.56,161.57c11.32,7.24,23.65,14.57,35.82,8.86,4.33-2.03,6.93-7.39,8.33-9.08l-1.66,6.49c-2.16,7.65-9.28,12.81-17.22,12.49h0c-4.16-.17-8.12-1.85-11.13-4.73l-13.86-13.22-.28-.81Z"/></g><path class="cls-32" d="M687.73,232.56l.2-.05c6.79-1.82,13.85,1.76,16.57,8.42h0c2.2,5.37,1.06,11.57-2.88,15.75l-.51,.54h-149.06s-.84-.71-.84-.71c-5.83-4.98-6.88-13.78-2.39-20.06h0c3.52-4.92,9.63-7.1,15.36-5.46l3.73,1.07,119.81,.52Z"/><path d="M637.36,229.83l-4.06-1.16c-6.23-1.78-12.88,.58-16.71,5.94h0c-4.89,6.84-3.75,16.41,2.6,21.83l.91,.78,16.9-.24,.36-27.15Z"/><path d="M566.09,231.56l3.38,2.29c2.94,1.99,6.37,3.11,9.92,3.24l19.5,.7,5.63,5.02,20.38-1.74,2.56-14.95-61.38,5.44Z"/><path class="cls-53" d="M629.33,235.83h35.63s20.55,4.32,22.73-21.43c2.19-25.75-9.69-45.31-9.69-45.31h-51.7s-5.8,16.05-5.8,16.05l-47.49,3.82c-11.06,.89-19.62,10.48-19.68,22.05h0c-.06,11.33,8.06,20.89,18.84,22.21l57.15,2.6Z"/><path class="cls-47" d="M640.58,233.61c-8.36-1.76-15.57-8.22-18.23-16.33-2.66-8.12-.67-17.59,5.03-23.95,3.66,.57,7.42,1.2,10.82,2.65,3.41,1.46,6.54,3.9,8.05,7.28,.85,1.89,1.15,3.97,1.33,6.03,.78,9.12-.88,18.44-4.74,26.74-.94-.08-2.18-1.49-2.27-2.42Z"/><path d="M586.23,205.35c.06,0,.12-.01,.18-.04,.18-.1,.25-.33,.15-.51-2.53-4.71-7.6-8.03-12.93-8.46-.23-.02-.39,.14-.4,.34-.02,.21,.14,.39,.34,.4,5.08,.41,9.92,3.58,12.33,8.07,.07,.13,.2,.2,.33,.2Z"/><path class="cls-52" d="M591.53,117.55c.7-.74,1.87-.76,2.6-.05l.76,.75-2.72-2.85c-.66-.7-.65-1.76,0-2.45,.72-.75,1.94-.78,2.71-.08l1.74,1.6c-.54-.66-.56-1.61-.01-2.28,.64-.78,1.79-.88,2.56-.24l2.63,2.21,.05-.08,9.16,7.85-1.81-1.82c-.79-.8-.91-2.04-.28-2.98,.25-.36,.73-.47,1.11-.25l8.18,4.85c.44,.26,.81,.64,1.07,1.08,.75,1.29,2.28,4.17,2.76,7.09,.51,3.12,1.82,7.25,2.35,8.84l.61-.44,13.12,16.29c1.6,1.99,2.21,4.6,1.65,7.09l-1.55,6.88c-.91,4.04-4.63,6.81-8.76,6.52-3.3-.23-6.15-2.39-7.28-5.5l-8.53-21.18-.63-1.07-6.39-2.51c-3.29-1.39-6.02-3.86-7.72-7l-6.91-12.66c-.34-.63-.23-1.4,.29-1.9,.49-.48,1.2-.57,1.77-.3l-2.57-2.96c-.62-.71-.59-1.78,.05-2.46Z"/><path d="M597.64,128.59c.08,0,.16-.02,.23-.08,.17-.12,.2-.36,.07-.53l-3.65-4.85c-.13-.17-.36-.2-.53-.07-.17,.12-.2,.36-.07,.53l3.65,4.85c.07,.1,.19,.15,.3,.15Z"/><path d="M599.58,124.79c.09,0,.18-.03,.25-.09,.16-.14,.17-.37,.03-.53l-5.97-6.78c-.14-.16-.37-.17-.53-.03-.16,.14-.17,.37-.03,.53l5.97,6.78c.07,.08,.18,.13,.28,.13Z"/><path d="M594.67,124.99s4.85,9.26,6.34,12.41c1.4,2.95,3.81,5.29,6.89,6.37l7.07,2.57,8.25,9.66,1.09-15.48-29.64-15.53Z"/><polygon class="cls-53" points="677.53 179.33 680.72 127.75 665.9 109.8 631.81 110.77 617.53 129.24 623.61 179.33 626.95 179.33 677.53 179.33"/><path d="M567.76,223.75l2.33,1.92-.22,3.34,19.45,1.07,.3-5.91,6.52,.06s-1.24-14.89,14.37-20.71c.09-.03-2.86-1.04-8.82,2.53-12.8,7.66-33.93,17.7-33.93,17.7Z"/><path class="cls-4" d="M567.76,223.72l.25-2.03c1.74-14.3,11.61-26.28,25.31-30.72l15.11-4.9c8.03-2.41,13.36-4.01,14.37-18.62l1.62-14.07,17.04,13.2-2.57,19.62c-1.05,8-7.49,14.21-15.53,14.97l-7.95,.75c-11.39,.81-20.38,10.02-20.9,21.44h0s-6-.18-6-.18l-.18,5.82-18.56-.73,.18-4-2.18-.55Z"/><path d="M630.91,184.42c.19,0,.36-.15,.37-.34,.02-.18,1.6-17.58,3.03-24.34,.67-3.17,2.21-7.82,2.23-7.87,.07-.2-.04-.41-.24-.47-.2-.07-.41,.04-.47,.24-.02,.05-1.57,4.73-2.25,7.95-1.44,6.8-3.02,24.25-3.04,24.42-.02,.21,.13,.39,.34,.41,.01,0,.02,0,.03,0Z"/><path d="M637.12,171.92c.2,0,.36-.15,.37-.35,.23-3.74,.98-7.43,2.23-10.96,.07-.2-.03-.41-.23-.48-.19-.07-.41,.03-.48,.23-1.27,3.6-2.03,7.35-2.27,11.16-.01,.21,.14,.38,.35,.4,0,0,.02,0,.02,0Z"/><path d="M588.33,229.37c.2,0,.37-.16,.38-.36l.32-6.79c.46-9.66,6.17-18.24,14.91-22.39l5.92-2.8c.19-.09,.27-.31,.18-.5-.09-.19-.31-.27-.5-.18l-5.92,2.8c-8.99,4.26-14.87,13.09-15.34,23.03l-.32,6.79c0,.21,.15,.38,.36,.39h.02Z"/><path d="M599.15,194.96s.07,0,.11-.01l15.95-4.65c5.83-1.7,10-6.71,10.62-12.75l.86-8.42c.02-.21-.13-.39-.33-.41-.21-.01-.39,.13-.41,.33l-.86,8.42c-.59,5.74-4.54,10.49-10.08,12.1l-15.95,4.65c-.2,.06-.31,.27-.25,.47,.05,.16,.2,.27,.36,.27Z"/><polygon class="cls-35" points="678.12 167.62 679.6 147.83 657.28 151.54 656.65 165.53 678.12 167.62"/><path class="cls-42" d="M622.36,128.92l-.25-4.05c-.12-6.75,3.61-10.39,8.76-15.54l6.29-5.81-5.75-15.49,20.98-9.63,4.34,13.05,13.22,10.15-47.58,27.31Z"/><path d="M635.72,163.88l11.21,10.21c8.77,7.72,22.62,3.11,25-8.33l3.09-14.82-39.31,12.95Z"/><path class="cls-42" d="M680.47,129.34l-8.1,31.56c-2.36,8.37-10.16,14.02-18.85,13.66h0c-4.55-.19-8.88-2.03-12.18-5.17l-22.48-21.44,7.77-13.33,22,11.8,6.53-24.69,25.31,7.62Z"/><path class="cls-52" d="M619.76,148.81l.23-.43c6.59,9.25,28.42,15.39,37.03,13.33,10.39-2.49,11.09-7.68,16.5-16.1l2.19,2.3c-2.72,12.75-6.04,27.09-22.18,26.66-10.6,.9-26.39-20.15-33.77-25.76Z"/><path d="M656.08,139.36s16.13,1.55,18.11,14.84l2.57-10.63-12.73-8.88-7.94,4.67Z"/><path class="cls-42" d="M593.8,114.77c.7-.74,1.87-.76,2.6-.05l.76,.75-2.72-2.85c-.66-.7-.65-1.76,0-2.45,.72-.75,1.94-.78,2.71-.08l1.74,1.6c-.54-.66-.56-1.61-.01-2.28,.64-.78,1.79-.88,2.56-.24l2.63,2.21,9.38,8.44-1.99-1.85c-.79-.8-.9-2.68-.27-3.61h0c.25-.36,.73-.47,1.11-.25l8.18,4.85c.44,.26,.81,.64,1.07,1.08,.75,1.29,1.93,3.68,2.4,6.6,.34,2.11,.62,3.6,.99,5.35,.32,1.51,1.85,2.67,1.85,2.67l-6.92,14.26-4.59-4.37-6.39-2.51c-3.3-1.39-6.02-3.86-7.72-7l-6.91-12.66c-.34-.63-.22-1.4,.29-1.9,.49-.48,1.2-.57,1.77-.3l-2.57-2.96c-.62-.71-.59-1.78,.05-2.46Z"/><path class="cls-41" d="M609.62,71.42c0-3.73,1.47-6.66,3.34-6.66s3.34,2.92,3.34,6.66-1.47,6.66-3.34,6.66-3.34-2.92-3.34-6.66Zm1,0c0,3.33,1.23,5.66,2.34,5.66s2.34-2.32,2.34-5.66-1.23-5.66-2.34-5.66-2.34,2.32-2.34,5.66Z"/><path class="cls-42" d="M644.9,90.57s-10.4,10-20.71,8.16c-6.4-1.14-6.97-14.1-6.97-14.1,0,0-1.3,.21-2.54,.05-1.48-.2-2.25-2.17-1.68-3.55l3.04-7.27c.42-1.01,.13-1.87-.25-3.08,0,0-3.19-9.72,2.47-16.95,5.74-7.35,17.74-12.58,28.93-8.89,11.2,3.7,17.93,9.92,14.12,27.97-3.81,18.05-16.4,17.67-16.4,17.67Z"/><path class="cls-67" d="M619.91,68.56l2.88,.21c.68,.05,1.33,.24,1.91,.55l2.32,1.25c.56,.3,1.28,.1,1.56-.42h0c.21-.4,.09-.88-.29-1.17l-2.72-2.03c-.66-.49-1.46-.79-2.31-.88l-3.03-.31c-.93-.1-1.75,.56-1.75,1.4h0c0,.73,.63,1.34,1.45,1.4Z"/><path class="cls-63" d="M620.55,51.26c6.25-5.96,18.29-9.88,28.14-6.63,11.2,3.7,17.36,15.88,13.55,28.73-1.75,5.91-4.71,9.8-7.3,12.75,0,0-1.59,.12-2.89-2.41s.57-5,.57-5l-1.71-3.45-3.73-3.59c-4.38,.52-8.09-.24-10.01-4.42-1.39-3.02-1.13-6.55,.47-9.47l1.42-2.61c1.5-2.74-1.09-5.91-4.08-5-3.05,.92-6.31,1.72-8.65,1.81-5.49,.2-5.77-.64-5.78-.71Z"/><path class="cls-42" d="M628,236.2l-22.74,6.35c-1.06,.3-2.2-.13-2.8-1.05l-.14-.21h0c-1.05,.23-2.14-.22-2.71-1.14l-.27-.43-.4-.02c-1.05-.05-1.97-.74-2.3-1.73l-.38-1.14h-.1c-1,.14-1.94-.52-2.17-1.5h0c-.24-1.06,.41-2.11,1.46-2.36l2.39-.57-2.52,.3c-.43,.05-.88,.04-1.31-.05l-.31-.06c-2.02-.38-3.49-2.14-3.51-4.2h0c-.01-1.54,.8-2.96,2.12-3.75l1.3-.77c.65-.38,1.4-.59,2.15-.6l10.57-.08,21.64,13.01Z"/><g><path class="cls-41" d="M617.01,71.4c0-4.33,2.59-7.85,5.78-7.85s5.78,3.52,5.78,7.85-2.59,7.86-5.78,7.86-5.78-3.52-5.78-7.86Zm1,0c0,3.78,2.14,6.86,4.78,6.86s4.78-3.08,4.78-6.86-2.14-6.85-4.78-6.85-4.78,3.08-4.78,6.85Z"/><rect class="cls-41" x="615.55" y="71.7" width="2.55" height="1"/><rect class="cls-41" x="628.06" y="71.68" width="17.22" height="1"/></g><path class="cls-4" d="M627.5,134.98s5.11-24.38,21.68-35.65c12.3-8.37,28.64-1.41,30.91,18.57,1.54,13.51,.05,23.5-.42,29.82-.02,.23-4.23,1.24-4.23,1.24,0,0-1.04-7.61-11.29-9.91-10.96-2.46-15.45,7.3-15.45,7.3l-21.19-11.36Z"/><path class="cls-42" d="M643.56,72.7l2.46-2.48c1.91-1.93,4.98-2.06,7.05-.3h0c1.88,1.6,2,4.14,1.17,6.47-.53,1.49-1.05,2.76-2.63,4.73-1.23,1.53-3.02,2.47-4.86,1.77h0c-1.4-.53-2.38-1.82-2.53-3.31l-.66-6.87Z"/><path d="M618.82,125.08c.1,0,.2-.04,.28-.12,.14-.15,.13-.39-.03-.53l-7.42-6.7c-.15-.14-.39-.13-.53,.03-.14,.15-.13,.39,.03,.53l7.42,6.7c.07,.06,.16,.1,.25,.1Z"/><path d="M609.23,122.49c.1,0,.19-.04,.27-.11,.15-.15,.14-.39,0-.53l-10.92-10.69c-.15-.15-.39-.14-.53,0-.15,.15-.14,.39,0,.53l10.92,10.69c.07,.07,.17,.11,.26,.11Z"/><path d="M605.62,125.53c.09,0,.19-.04,.26-.1,.15-.14,.15-.38,.01-.53l-10.04-10.45c-.14-.15-.38-.15-.53-.01-.15,.14-.15,.38-.01,.53l10.04,10.45c.07,.08,.17,.12,.27,.12Z"/><path d="M602.55,128.49c.08,0,.17-.03,.24-.09,.16-.13,.18-.37,.05-.53l-6.43-7.68c-.13-.16-.37-.18-.53-.05-.16,.13-.18,.37-.05,.53l6.43,7.68c.07,.09,.18,.13,.29,.13Z"/><path d="M654.82,150.47c.11,0,.22-.05,.29-.14,.13-.16,.1-.4-.06-.53-2.26-1.78-4.76-3.24-7.42-4.34-.19-.08-.41,.01-.49,.2-.08,.19,.01,.41,.2,.49,2.6,1.07,5.04,2.5,7.24,4.24,.07,.05,.15,.08,.23,.08Z"/><path d="M674.19,154.57c.17,0,.32-.11,.36-.28l4.29-16.86c.05-.2-.07-.41-.27-.46-.21-.05-.41,.07-.46,.27l-4.29,16.86c-.05,.2,.07,.41,.27,.46,.03,0,.06,.01,.09,.01Z"/><path d="M645.58,145.05c.13,0,.26-.07,.33-.2,.06-.11,5.98-11.04,14.47-13.37,10.38-2.86,16.67,8.57,16.73,8.69,.1,.18,.33,.25,.51,.15,.18-.1,.25-.33,.15-.51-.06-.12-6.62-12.08-17.59-9.06-8.8,2.42-14.68,13.28-14.93,13.74-.1,.18-.03,.41,.15,.51,.06,.03,.12,.04,.18,.04Z"/><path d="M632.91,138.08c.15,0,.29-.09,.35-.24,.03-.08,3.22-8.52,10.54-18.96,5.74-8.18,11.79-10.65,15.86-11.27,4.41-.68,7.5,.59,7.54,.6,.19,.08,.41,0,.49-.2,.08-.19,0-.41-.2-.49-.13-.06-12.98-5.22-24.3,10.93-7.38,10.52-10.6,19.05-10.63,19.13-.07,.19,.03,.41,.22,.48,.04,.02,.09,.02,.13,.02Z"/><path d="M633.26,130.21c.15,0,.3-.09,.35-.25,4.15-11.3,9.85-17.67,9.91-17.73,.14-.15,.13-.39-.03-.53-.16-.14-.39-.13-.53,.03-.06,.06-5.85,6.53-10.06,17.98-.07,.19,.03,.41,.22,.48,.04,.02,.09,.02,.13,.02Z"/><g><path d="M609.18,204s.07,0,.11-.02c19.94-5.89,34.06-1.85,34.2-1.81,.2,.06,.41-.05,.47-.25s-.05-.41-.25-.47c-.14-.04-14.45-4.15-34.62,1.81-.2,.06-.31,.27-.25,.47,.05,.16,.2,.27,.36,.27Z"/><path d="M632.61,200.86c.08,0,.15-.02,.22-.07,2.51-1.82,5.6-2.83,8.7-2.85,.21,0,.37-.17,.37-.38,0-.21-.17-.37-.37-.37h0c-3.26,.01-6.5,1.08-9.14,2.99-.17,.12-.2,.36-.08,.52,.07,.1,.19,.15,.3,.15Z"/><path d="M629.06,237.19c.13,0,.25-.06,.32-.18,.11-.18,.05-.41-.13-.51l-22.38-13.45c-.18-.11-.41-.05-.51,.13-.11,.18-.05,.41,.13,.51l22.38,13.45c.06,.04,.13,.05,.19,.05Z"/><path d="M605.01,241.15c.09,0,.19-.04,.26-.11,.15-.15,.15-.38,0-.53-6.26-6.36-4.49-12.53-4.47-12.59,.06-.2-.05-.41-.25-.47-.2-.06-.41,.05-.47,.25-.08,.27-1.92,6.66,4.65,13.34,.07,.08,.17,.11,.27,.11Z"/><path d="M596.31,237.87s.05,0,.08,0l4.9-1.05c.2-.04,.33-.24,.29-.45-.04-.2-.23-.34-.45-.29l-4.9,1.05c-.2,.04-.33,.24-.29,.45,.04,.18,.19,.3,.37,.3Z"/><path d="M599.44,240.83s.09,0,.13-.02l3.64-1.37c.19-.07,.29-.29,.22-.48-.07-.19-.29-.29-.48-.22l-3.64,1.37c-.19,.07-.29,.29-.22,.48,.06,.15,.2,.24,.35,.24Z"/><path d="M602.52,242.45c.05,0,.1,0,.15-.03l2.43-1.06c.19-.08,.28-.3,.19-.49s-.31-.28-.49-.19l-2.43,1.06c-.19,.08-.28,.3-.19,.49,.06,.14,.2,.22,.34,.22Z"/><path d="M596.12,233.4s.08,0,.12-.02c1.17-.4,2.39-.67,3.62-.82,.21-.02,.35-.21,.33-.42-.02-.21-.2-.36-.42-.33-1.28,.15-2.55,.44-3.78,.85-.2,.07-.3,.28-.24,.48,.05,.16,.2,.25,.36,.25Z"/></g><g><path class="cls-36" d="M773.39,230.39l.22-.06c7.39-1.98,15.07,1.92,18.03,9.16h0c2.39,5.84,1.16,12.59-3.13,17.14l-.55,.59h-162.2s-.91-.78-.91-.78c-6.35-5.42-7.49-15-2.6-21.83h0c3.83-5.36,10.48-7.72,16.71-5.94l4.06,1.16,130.38,.56Z"/><path d="M637.64,228.38s5.65,9.83,28.44,11.92,18.61,3.56,18.61,3.56l1.22,3.07,26.39-3.7s37.22,3.14,49.98,.42c12.76-2.72,24.47-10.46,24.47-10.46,0,0-.84-2.09-7.11-3.35-6.27-1.25-13.8,3.76-13.8,3.76l-128.19-5.23Z"/><polygon points="644.19 239.31 665.09 242.66 665.28 238.68 644.19 239.31"/><path class="cls-21" d="M712.94,239.74h40.44s24.87,.68,27.24-27.35c1.64-19.35-11.99-49.97-11.99-49.97h-58.67s-6.58,17.47-6.58,17.47l-53.9,4.16c-12.56,.97-22.27,11.41-22.34,24h0c-.07,12.33,9.14,22.73,21.39,24.16l64.41,7.54Z"/><path class="cls-6" d="M730.08,238.13c9.88-.73,19.49-4.68,27.03-11.11,7.54-6.43,12.96-15.29,15.25-24.93,2.62-11.04,1.16-22.64-1.41-33.69l.1-.09c3.83,9.85,10.77,29.96,9.57,44.08-2.37,28.03-27.24,27.35-27.24,27.35h-23.49s.2-1.62,.2-1.62Z"/><path d="M768.2,136.89l.43-.1c3.07-.75,5.54-.45,6.19-5.7,0,0,3.42-28.56-.1-37.18-3.75-9.18-11.62-12.71-11.62-12.71l-13.69,8.25,18.8,47.44Z"/><path class="cls-59" d="M669.69,103.16c.76-.8,2.03-.83,2.82-.05l.83,.82-2.96-3.1c-.72-.76-.71-1.92,0-2.67,.78-.81,2.11-.85,2.95-.09l1.89,1.74c-.59-.71-.61-1.75-.01-2.48,.69-.85,1.94-.96,2.78-.26l2.86,2.41,.05-.09,9.97,8.55-1.97-1.98c-.86-.87-.99-2.22-.3-3.24h0c.27-.4,.8-.51,1.21-.27l8.9,5.28c.48,.29,.88,.69,1.17,1.18,.82,1.4,2.48,4.54,3,7.72,.7,4.28,2.8,10.34,2.8,10.34l-9.2,14.43-3.41-5.8-6.96-2.73c-3.59-1.51-6.55-4.2-8.4-7.62l-7.52-13.78c-.37-.68-.24-1.53,.31-2.07,.53-.52,1.3-.62,1.93-.33l-2.79-3.22c-.67-.77-.65-1.93,.06-2.67Z"/><path d="M676.61,114.33c.08,0,.17-.03,.24-.08,.16-.13,.18-.37,.05-.53l-3.83-4.7c-.13-.16-.37-.18-.53-.05-.16,.13-.18,.37-.05,.53l3.83,4.7c.07,.09,.18,.14,.29,.14Z"/><polygon class="cls-21" points="768.63 162.42 772.33 108.82 755.98 84.64 718.88 85.73 703.34 106.39 709.96 162.42 768.63 162.42"/><polygon class="cls-6" points="770.35 136.36 772.33 108.82 763.82 138.5 770.35 136.36"/><path d="M678.46,110.34c.09,0,.18-.03,.25-.09,.16-.14,.17-.37,.03-.53l-5.97-6.78c-.14-.16-.37-.17-.53-.03-.16,.14-.17,.37-.03,.53l5.97,6.78c.07,.08,.18,.13,.28,.13Z"/><polygon class="cls-48" points="696.27 141.17 703.67 161.32 717.39 162.29 721.76 142.87 706.1 125.75 696.27 141.17"/><path d="M675.44,111.96l5.37,13.43c1.26,3.01,3.72,5.36,6.78,6.49l7.89,3.53,7.25,9.6,1.36-15.46-28.64-17.59Z"/><polygon class="cls-50" points="701.98 103.24 729.87 81.62 711.21 123.24 704.09 122.45 701.98 103.24"/><polygon class="cls-53" points="768.63 162.42 770.35 136.36 746.88 141.41 746.2 159.29 768.63 162.42"/><path class="cls-38" d="M702.26,107.64l-.27-4.41c-.45-7.22,3.1-14.1,9.23-17.93l6.57-4.19-6.26-16.85,23.09-11,6.69,18.01,13.07,6.97-52.11,29.4Z"/><path class="cls-51" d="M704.85,119.96c1.86-23.27,29.49-48.18,46.82-44.78,0,0,6.28,2.76,11.63,5.63,6.89,3.7,9.97,10.09,9.97,10.09,0,0-7.01-10.38-20.9-1.87-10.75,6.59-17.9,18.43-20.51,26.12-5.35,15.78-9.51,63.81-9.51,63.81-.48,4.3-2.17,8.38-4.87,11.77h0c-3.49,4.38-8.46,7.33-13.97,8.31l-12.22,2.17c-11.56,2.05-20.27,11.67-21.18,23.38l-.43,11.71-5.66,.1v3.13s-19.82-.2-19.82-.2l.32-11.69-2.86-.13,.53-8.28c2.32-16.04,14.47-28.89,30.36-32.1l19.55-4.24c3.91-.79,6.79-4.14,6.97-8.13,0,0,4.66-40.73,5.78-54.78Z"/><path d="M700.86,160.8c.19,0,.35-.14,.37-.34l1.97-19.78c.02-.21-.13-.39-.34-.41-.21-.02-.39,.13-.41,.34l-1.97,19.78c-.02,.21,.13,.39,.34,.41,.01,0,.03,0,.04,0Z"/><path d="M712.83,148.65l16.67,16.04c10.49,10.09,27.99,4.58,30.8-9.71l3.43-17.47-50.91,11.14Z"/><path class="cls-21" d="M700.76,137.13l8.46-14.5,23.94,12.84,9.06-36.28s7.15-8.22,9.95-10c6.01-3.81,11.24-3.6,11.24-3.6,12.33,4.98,11.76,16.82,7.69,29.11l-12.1,36.53c-2.57,9.11-11.05,15.26-20.51,14.87h0c-4.96-.2-9.67-2.21-13.26-5.63l-24.47-23.34Z"/><path class="cls-38" d="M673.49,101.02c.76-.8,2.03-.83,2.82-.05l.83,.82-2.96-3.1c-.72-.76-.71-1.92,0-2.67,.78-.81,2.11-.85,2.95-.09l1.89,1.74c-.59-.71-.61-1.75-.01-2.48,.69-.85,1.94-.96,2.78-.26l2.86,2.41,10.21,9.18-2.17-2.01c-.86-.87-.98-2.92-.3-3.93h0c.27-.4,.8-.51,1.21-.27l8.9,5.28c.48,.29,.88,.69,1.17,1.18,.82,1.4,2.1,4.01,2.62,7.19,.37,2.3,.67,3.92,1.08,5.82,.35,1.64,2.01,2.91,2.01,2.91l-7.51,16.06-5.01-5.3-6.96-2.73c-3.59-1.51-6.55-4.2-8.4-7.62l-7.52-13.78c-.37-.68-.24-1.53,.31-2.07,.53-.52,1.3-.62,1.93-.33l-2.79-3.22c-.67-.77-.65-1.93,.06-2.67Z"/><path class="cls-53" d="M712.83,148.65l-2.89-2.78s-2.5-5.27,6.65-8.63,16.95-.67,16.95-.67l-4.72-9.69s-12.24-3.48-21.87,4.52c-11.99,9.95-3.87,22.65,5.89,17.25Z"/><path class="cls-38" d="M726.78,71.83s-16.58,9.44-23.73,5.44c-4.58-2.56-3.77-15.63-3.77-15.63l-3.65-.66c-1.56-.44-2.28-2.24-1.47-3.64l5.33-9.93c.6-1.03,.66-2.28,.17-3.36l-.43-.94s-1.67-9.83,5.5-17c7.17-7.17,20.92-11.06,32.48-5.48,11.56,5.58,17.93,13.25,11.26,32.18-6.67,18.93-21.68,19.03-21.68,19.03Z"/><path class="cls-60" d="M707.58,23.67c7.59-5.54,19.45-7.97,29.63-3.06,11.56,5.58,17.93,13.25,11.26,32.18-2.23,6.32-5.39,10.54-8.61,13.36l-.42,.21-1.02-2.74-.86-2.31-5.86-13.31h.05c-4.8-.08-7.47-1.04-8.95-5.81-1.07-3.46,.18-6.14,2.31-9.06l1.9-2.61c2.01-2.75-.34-6.53-3.69-5.98-3.42,.56-7.05,.96-9.59,.72-5.96-.56-6.13-1.51-6.13-1.59Z"/><path d="M682.05,197.87h14c13.53,0,21.88-9.91,21.71-20.27-.05-2.76-.63-8.52-.63-8.52l-59.58,.66v4.72c0,12.93,10.97,23.41,24.5,23.41Z"/><polygon points="704.28 199.18 708.41 193.75 701.54 193.56 699.08 199.92 704.28 199.18"/><path class="cls-38" d="M728.78,47.88l3-2.33c2.33-1.81,5.67-1.51,7.65,.68h0c1.8,2,1.57,4.76,.34,7.15-.79,1.53-1.53,2.82-3.51,4.72-1.54,1.48-3.61,2.24-5.49,1.22h0c-1.44-.78-2.31-2.3-2.25-3.93l.26-7.51Z"/><path class="cls-45" d="M678.4,168.99h14c13.52,0,24.5,10.98,24.5,24.5v4.93h-62.99v-4.93c0-13.52,10.98-24.5,24.5-24.5Z" transform="translate(1370.8 367.42) rotate(-180)"/><path class="cls-30" d="M665.17,194.49l40.62-.1-4.3,5.21-7.77,1.14c-10.09,1.36-18.02,7.61-22,16.45h-6.54s8.66-11.51,8.66-11.51l-8.66-11.19Z"/><path d="M673.84,206.05h0s7.22-.19,7.22-.19c.21,0,.37-.18,.37-.38s-.15-.39-.38-.37l-7.22,.19c-.21,0-.37,.18-.37,.38,0,.2,.17,.37,.37,.37Z"/><polygon class="cls-25" points="660.32 161.16 653.9 168.99 716.9 168.99 710.73 160.97 660.32 161.16"/><path class="cls-38" d="M711.7,239.72l-25.78,7.2c-1.21,.34-2.49-.14-3.18-1.19l-.15-.24h0c-1.2,.27-2.43-.25-3.07-1.3l-.3-.49-.46-.02c-1.19-.05-2.23-.83-2.61-1.97l-.43-1.3h-.11c-1.14,.16-2.2-.59-2.46-1.7h0c-.28-1.2,.46-2.39,1.66-2.68l2.71-.65-2.86,.34c-.49,.06-.99,.04-1.48-.05l-.35-.07c-2.29-.43-3.96-2.43-3.98-4.76h0c-.01-1.74,.9-3.36,2.4-4.25l1.47-.87c.74-.44,1.58-.67,2.44-.68l11.98-.1,24.55,14.76Z"/><path d="M737.87,139.77c.12,0,.24-.06,.31-.17,.11-.17,.06-.41-.11-.52l-4.25-2.77-4.67-9.59c-.09-.19-.32-.26-.5-.17-.19,.09-.26,.32-.17,.5l4.76,9.78,4.42,2.89c.06,.04,.13,.06,.21,.06Z"/><path d="M732.93,142.91c.19,0,.35-.14,.37-.34l.61-5.97c.02-.21-.13-.39-.33-.41-.22-.01-.39,.13-.41,.33l-.61,5.97c-.02,.21,.13,.39,.33,.41,.01,0,.03,0,.04,0Z"/><path d="M761.04,147.5c.16,0,.31-.11,.36-.27l6.89-23.5c.06-.2-.06-.41-.25-.47-.2-.05-.41,.06-.47,.25l-6.89,23.5c-.06,.2,.06,.41,.25,.47,.04,0,.07,.01,.11,.01Z"/><path d="M768.63,162.79c.18,0,.34-.14,.37-.32,.03-.21-.11-.39-.32-.42l-14.74-2.06c-.22-.03-.39,.12-.42,.32-.03,.21,.11,.39,.32,.42l14.74,2.06s.04,0,.05,0Z"/><path d="M717.67,136.48c4.15,0,8.15-.56,8.45-.61,.21-.03,.35-.22,.32-.42s-.21-.35-.42-.32c-.13,.02-13.28,1.87-16.52-1.04-.15-.14-.39-.13-.53,.03-.14,.15-.13,.39,.03,.53,1.6,1.44,5.19,1.84,8.68,1.84Z"/><path d="M706.49,141.21c5.01,0,11.53-4.4,11.83-4.6,.17-.12,.22-.35,.1-.52-.12-.17-.35-.21-.52-.1-.08,.05-7.8,5.24-12.57,4.37-.22-.03-.4,.1-.44,.3-.04,.2,.1,.4,.3,.44,.42,.08,.85,.11,1.29,.11Z"/><path d="M727.59,104.29c.14,0,.28-.08,.34-.22,5.65-12.1,17.05-22.17,26.51-23.42,.21-.03,.35-.22,.32-.42-.03-.2-.21-.35-.42-.32-9.85,1.3-21.25,11.33-27.09,23.85-.09,.19,0,.41,.18,.5,.05,.02,.11,.04,.16,.04Z"/><path d="M711.64,117.7c.17,0,.32-.11,.36-.28,4.54-16.41,13.15-25.88,19.57-30.94,6.95-5.47,12.88-7.07,12.93-7.09,.2-.05,.32-.26,.27-.46s-.26-.32-.46-.27c-.24,.06-24.24,6.75-33.04,38.55-.06,.2,.06,.41,.26,.46,.03,0,.07,.01,.1,.01Z"/><path d="M716.03,76.43s8.24-3.38,12.4-9.94l-9.81,17-2.6-7.06Z"/><path d="M732.01,50.33c.17,0,.32-.11,.36-.28,.29-1.07,1.29-1.94,2.43-2.13,1.15-.18,2.36,.33,2.95,1.26,.11,.17,.34,.23,.52,.11s.23-.34,.11-.52c-.75-1.17-2.28-1.82-3.7-1.6-1.43,.23-2.68,1.33-3.04,2.67-.05,.2,.07,.41,.27,.46,.03,0,.06,.01,.1,.01Z"/><path d="M700.71,60.59c.23,0,.39-.16,.39-.38,0-.21-.17-.37-.37-.37h-.02c-.8,0-1.59-.15-2.29-.43-.19-.08-.41,.02-.49,.21-.08,.19,.02,.41,.21,.49,.79,.32,1.68,.49,2.57,.49Z"/><path d="M703.46,43.68c1.2-.29,2.73-.39,5.1,.61s4.11,1.7,4.93,1.12c.81-.57-1.28-2.62-4.85-3.99-2.87-1.1-4.94-.46-5.9-.24-1.21,.27-1.37,3.01,.73,2.5Z"/><path d="M653.68,169.34h62.99c.21,0,.38-.17,.38-.37s-.17-.38-.37-.38h-62.99c-.21,0-.38,.17-.38,.37s.17,.38,.37,.38Z"/><path d="M644.51,228c.2,0,.37-.16,.38-.36,0-.07,.26-6.84,.52-9.06,.4-3.48,1.85-8.95,6.48-15.24,.12-.17,.09-.4-.08-.52-.17-.12-.4-.09-.52,.08-4.73,6.42-6.21,12.02-6.62,15.6-.26,2.25-.51,8.84-.52,9.12,0,.21,.15,.38,.36,.39h.01Z"/><path d="M664.01,239.88c.2,0,.37-.16,.38-.36l.69-15.84c0-.21-.15-.38-.36-.39h-.02c-.2,0-.37,.16-.38,.36l-.69,15.84c0,.21,.15,.38,.36,.39h.02Z"/><path d="M707.18,112.38c.17,0,.32-.11,.36-.28,1.5-5.72,3.46-10.19,6.19-14.08,.12-.17,.08-.4-.09-.52-.17-.12-.4-.08-.52,.09-2.78,3.96-4.78,8.51-6.3,14.32-.05,.2,.07,.41,.27,.46,.03,0,.06,.01,.09,.01Z"/><path d="M701.04,67.81c2.08,0,3.91-.85,5.8-2.66,.15-.14,.15-.38,.01-.53-.14-.15-.38-.16-.53-.01-2.1,2.01-4.11,2.74-6.51,2.35-.21-.03-.4,.11-.43,.31-.03,.2,.11,.4,.31,.43,.46,.07,.91,.11,1.35,.11Z"/><path d="M709.6,48.25c.08,0,.17-.03,.24-.09,.16-.13,.18-.37,.05-.53-.9-1.08-2.17-1.75-3.47-1.86-1.49-.12-2.98,.58-3.57,1.72-.1,.18-.02,.41,.16,.51,.18,.09,.41,.03,.51-.16,.45-.86,1.64-1.43,2.84-1.32,1.11,.09,2.19,.67,2.96,1.59,.07,.09,.18,.13,.29,.13Z"/><path d="M703.1,49.23c.49,.5,1.25,.67,1.94,.55,.37-.06,.73-.21,.98-.49,.27-.3,.36-.71,.39-1.11,.04-.54-.04-1.11-.37-1.53-.37-.47-1.03-.68-1.62-.55-1.31,.28-2.41,2.01-1.32,3.13Z"/></g><circle class="cls-74" cx="393.88" cy="195.72" r="19.21"/><ellipse class="cls-74" cx="458.58" cy="218.78" rx="16.91" ry="16.4"/><circle class="cls-74" cx="485.43" cy="216.63" r="17.36"/><path class="cls-9" d="M485.89,205.62l-3.3,13.86c-.35,1.48-.05,3.1,.78,4.22l.09,.12c1.25,1.7,3.32,1.78,4.64,.2h0c.9-1.09,1.26-2.74,.91-4.28l-3.12-14.13Z"/><path class="cls-12" d="M482.95,234.58c.62,0,1.16-.25,1.62-.74,2.67-2.84,1.63-13.59,1.58-14.05l-.75,.07c.01,.11,1.05,10.86-1.39,13.46-.33,.35-.71,.52-1.13,.5l-.03,.75s.06,0,.09,0Z"/><circle class="cls-74" cx="438.34" cy="194.33" r="19.08"/><path class="cls-9" d="M438.36,185.73l-3.3,13.86c-.35,1.48-.05,3.1,.78,4.22l.09,.12c1.25,1.7,3.32,1.78,4.64,.2h0c.9-1.09,1.26-2.74,.91-4.28l-3.12-14.13Z"/><path class="cls-12" d="M435.62,214.68c.62,0,1.16-.25,1.62-.74,2.67-2.84,1.63-13.59,1.58-14.05l-.75,.07c.01,.11,1.05,10.86-1.39,13.46-.33,.35-.69,.53-1.13,.5l-.03,.75s.06,0,.09,0Z"/><rect class="cls-2" x="448.32" y="234.31" width="2.7" height="13.14" rx="1.35" ry="1.35" transform="translate(899.33 481.76) rotate(180)"/><rect class="cls-2" x="450.93" y="233.94" width="4.78" height="8.42" rx="2.39" ry="2.39" transform="translate(906.65 476.3) rotate(-180)"/><polygon class="cls-10" points="455.53 256.84 450.65 208.17 424.91 208.17 423.28 256.99 455.53 256.84"/><path class="cls-12" d="M444.47,221.24v-12.25h1.13v12.39c0,2.23,.56,4.38,1.48,6.27,.37,.76,.59,1.73,.59,2.79,0,2.46-1.2,4.46-2.68,4.46s-2.68-2-2.68-4.46c0-1.08,.23-2.08,.62-2.85,.95-1.91,1.54-4.08,1.54-6.35Z"/><path class="cls-12" d="M450.84,208.31s-2.75,8.13-12.71,8.13c-9.96,0-12.66-8.13-12.66-8.13h25.37Z"/><polygon class="cls-18" points="439.45 257.37 445.14 232.16 468.79 229.1 471.05 257.08 439.45 257.37"/><path class="cls-14" d="M445.14,232.08h0s23.65-2.98,23.65-2.98c0,0-3.61,3.28-5.27,4.6-3.37,2.66-12.48,7.16-18.38-1.61Z"/><path d="M455.58,235.38l1.37,6.73,4.99-1.84-1.1,7.48,5.67-.41-1.72,3.36c-1.97,3.74-5.36,6.66-9.95,6.62l-3.82-.05-5.1-.04,9.65-21.85Z"/><path d="M504.71,235.1l1.37,6.73,4.99-1.84-1.1,7.48,5.67-.41-1.72,3.36c-1.97,3.74-5.36,6.66-9.95,6.62l-3.82-.05-5.1-.04,9.65-21.85Z"/><g><path class="cls-22" d="M445.21,256.61l2.57-4.12c2.61-4.18,2.82-9.43,.55-13.8l-2.77-5.36-3,5.75c-2.21,4.24-2.1,9.31,.29,13.45l2.36,4.08Z"/><path class="cls-22" d="M445.24,256.49l4.73-1.1c4.8-1.11,8.66-4.67,10.15-9.37l1.83-5.75-6.19,1.94c-4.56,1.43-8.07,5.1-9.3,9.72l-1.22,4.56Z"/><path class="cls-1" d="M445.32,256.49l-4.73-1.1c-4.8-1.11-8.66-4.67-10.15-9.37l-1.83-5.75,6.19,1.94c4.56,1.43,8.07,5.1,9.3,9.72l1.22,4.56Z"/><path class="cls-16" d="M445.18,256.2l-4.1-2.59c-4.16-2.63-6.63-7.27-6.5-12.19l.17-6.03,5.2,3.87c3.83,2.86,5.94,7.47,5.58,12.24l-.35,4.7Z"/><path class="cls-16" d="M445.16,256.2l4.1-2.59c4.16-2.63,6.63-7.27,6.5-12.19l-.17-6.03-5.2,3.87c-3.83,2.86-5.94,7.47-5.58,12.24l.35,4.7Z"/><path class="cls-16" d="M445.22,256.44l-4.8,.69c-4.88,.7-9.76-1.23-12.85-5.07l-3.78-4.7,6.47-.42c4.77-.31,9.37,1.84,12.19,5.7l2.78,3.81Z"/><path class="cls-16" d="M445.08,256.44l4.8,.69c4.88,.7,9.76-1.23,12.85-5.07l3.78-4.7-6.47-.42c-4.77-.31-9.37,1.84-12.19,5.7l-2.78,3.81Z"/><rect class="cls-16" x="437.68" y="253.31" width="14.49" height="3.96" transform="translate(889.85 510.58) rotate(-180)"/></g><path class="cls-9" d="M459.01,207.71l-3.3,13.86c-.35,1.48-.05,3.1,.78,4.22l.09,.12c1.25,1.7,3.32,1.78,4.64,.2h0c.9-1.09,1.26-2.74,.91-4.28l-3.12-14.13Z"/><path class="cls-14" d="M455.96,236.36c.62,0,1.16-.25,1.62-.74,2.67-2.84,1.63-13.59,1.58-14.05l-.75,.07c.01,.11,1.05,10.86-1.39,13.46-.33,.35-.7,.51-1.13,.5l-.03,.75s.06,0,.09,0Z"/><ellipse class="cls-74" cx="412.85" cy="171.06" rx="20.56" ry="20.28"/><polygon class="cls-18" points="427.6 185.98 400.84 194.87 398.05 256.92 436.91 257 427.6 185.98"/><path class="cls-9" d="M412.45,160.67l3.91,17.66c.42,1.88,.06,3.94-.92,5.38l-.11,.16c-1.49,2.16-3.94,2.27-5.5,.25h0c-1.07-1.38-1.49-3.48-1.08-5.45l3.71-18Z"/><path class="cls-14" d="M400.72,194.89l3.98,3.96c2.84,2.82,6.91,3.72,10.56,2.33h0c8.29-2.69,12.42-15.22,12.42-15.22l-26.96,8.93Z"/><path class="cls-14" d="M412.81,191.21l.71-.23c-.56-1.72-.86-5.7-.77-10.15l-.75-.02c-.09,4.53,.22,8.61,.8,10.4Z"/><path class="cls-14" d="M412.85,223.69v-22.91h1.13v23.03c0,1.83,.56,3.58,1.48,5.13,.37,.62,.59,1.42,.59,2.28,0,2.02-1.2,3.65-2.68,3.65-1.48,0-2.68-1.63-2.68-3.65,0-.89,.23-1.7,.62-2.33,.95-1.56,1.54-3.34,1.54-5.2Z"/><path class="cls-14" d="M410.17,251.01h13.05c3.24,0,5.86,2.63,5.86,5.86h-24.77c0-3.24,2.63-5.86,5.86-5.86Z"/><rect class="cls-14" x="411.7" y="199.66" width="1.24" height="51.88"/><rect class="cls-14" x="409.6" y="245.62" width="6.02" height="7.8" rx="3.01" ry="3.01"/><circle class="cls-74" cx="370.52" cy="218.15" r="19.99"/><circle class="cls-74" cx="332.66" cy="212.18" r="17.24"/><circle class="cls-74" cx="312.34" cy="194.15" r="16.77"/><g><path class="cls-24" d="M214.35,199.93l-10.34,26.73,5.71,30.51,99.83,.44c11.52,.06,20.91-8.4,20.98-18.9h0c.05-7.26-4.51-13.76-11.56-17.14-11.13-5.34-44.07-22.27-44.07-22.27l-60.54,.63Z"/><path class="cls-5" d="M231.23,257.26c10.44-12.61,24.12-20.13,40.28-23.77,3.48-.78,7.17-1.31,10.55-.19,6.69,2.21,11.11,7.96,16.45,12.55,7.31,6.29,19.39,6.01,26.4-.62l-4.91,9.85c-3.08,1.61-6.65,2.54-10.46,2.52l-78.31-.35Z"/><polygon class="cls-58" points="273.8 136.9 284.99 159.57 276.35 164.94 269.13 139.32 273.8 136.9"/><path class="cls-58" d="M305.17,161.06l-15.05,18.11c-4.78,5.75-13.97,4.27-16.71-2.69l-6.12-15.56,37.88,.13Z"/><polygon points="298.92 168.67 295.81 168.57 280 180.11 278.54 174.9 295.19 164.53 300.6 166.25 298.92 168.67"/><path class="cls-8" d="M214.81,200.17s-1.34-42.3-2.47-56.36c-1.03-12.87,4.04-24.75,14.91-31.08l12.56-6.42,17.69,9.96c4.79,2.84,8.27,5.05,11.13,10.39l8.85,17.61-5.68,3.56,10.17,36.85c1.8,5.91,.68,11.94-6.92,15.34,0,0-13.42,1.72-19.3,2.16-4.14,.31-22.1,.83-26.21,.22-4.42-.65-14.74-2.22-14.74-2.22Z"/><path class="cls-20" d="M227.24,112.74l7.14-3.65c.11,.04,.22,.09,.33,.14-2.62,1.49-4.29,4.24-5.35,7.06-1.06,2.82-1.62,5.81-2.66,8.65-2.49,6.8-7.9,12.42-14.48,15.42,.06-11.51,5.13-21.86,15.02-27.61Z"/><path d="M252.74,155.85l4.57,10.87,18.37-4.86,5.45,19.76-17.83,11.31c-9.94,5.01-18.73,1.79-23.13-6.48l-11.19-22.8,23.76-7.81Z"/><polygon class="cls-56" points="239.79 106.37 246.65 93.88 263.46 109.32 255.61 125.02 239.79 106.37"/><path class="cls-56" d="M288.5,81.4s2.43,4.08-.63,11.47c-1.14,2.76-2.21,6.03-2.21,6.03l-1.69,2.02,.08,8.97c-.22,1.4-1.63,2.28-3.06,1.9l-1.99-.52s-4.97,9.02-7.12,9.41c-7.41,1.33-17.55-13.48-17.55-13.48l-7.02-12.73,.47-.84c.73-1.32-.1-3.64-.55-5.1l19.43-17.9,21.85,10.77Z"/><path d="M250.63,70.36l3.27-3.44c1.66-1.75,4.24-2.23,6.37-1.18l7.31,4.31,21.1,12.05s.68,2.47,.93,4.63c-.69,.64-1.64,1.11-2.97,1.14-4.56,.11-17.57-7.73-17.57-7.73,0,0-.29,5.83-4.02,7.56-3.73,1.74-6,.54-6,.54l-6.03,5.93s-3.04,3.87-7.61,2.02h0s.5-.91,.5-.91c.77-1.41,.94-3.07,.52-4.61-2.12-7.7-.53-15.33,4.21-20.32Z"/><path d="M260.37,66.04h0c3.43-2.5,7.91-2.9,11.64-1.01,7.5,3.8,18.94,8.28,21.93,14.92,3.58,7.95-5.19,10.36-5.19,10.36,0,0,.31-1.16,.48-2.45,.2-1.51,0-2.15,0-2.15l-28.86-19.67Z"/><path class="cls-61" d="M302.23,139.24h11.34c11.53,0,20.9,9.36,20.9,20.9v1.18h-53.13v-1.18c0-11.53,9.36-20.9,20.9-20.9Z" transform="translate(615.8 300.56) rotate(-180)"/><path class="cls-56" d="M252.42,151.48l4.57,10.87,30.56-8.26,.28-1.2c.61-2.62,2.65-4.67,5.26-5.31l5.28-1.29,6.24-2.89c.99-.46,2.17-.04,2.65,.95h0c.39,.81,.19,1.77-.48,2.37l-6.08,5.4,10.01,.58-1.51,15.48-13.73-.93-34.12,21.66c-9.94,5.01-18.74,1.79-23.13-6.48l-11.19-22.8,25.4-8.14Z"/><polygon class="cls-61" points="334.47 139.24 329.72 131.76 285.58 131.76 281.34 139.24 334.47 139.24"/><path class="cls-56" d="M309.68,152.92l10.49-4.98c1.04-.49,2.28-.03,2.75,1.02h0c.42,.94,.07,2.05-.81,2.58l-12.15,6.27-.27-4.89Z"/><path class="cls-56" d="M308.4,158.04l11.82-5.61c1.17-.56,2.6-.46,3.12,.73h0c.47,1.06-.17,2.09-1.16,2.69l-11.99,7.24-1.79-5.04Z"/><path class="cls-56" d="M307.54,160.43l11.17-3.98c1.11-.39,2.32,.2,2.69,1.32h0c.32,1-.14,2.08-1.09,2.53l-11.47,5.43-1.29-5.31Z"/><path class="cls-56" d="M307.82,163.98l8.73-3.86c.87-.38,1.88,.02,2.24,.9h0c.32,.78,.01,1.68-.72,2.1l-8.88,5.04-1.36-4.18Z"/><polygon points="260.6 114.93 254.45 107.49 257.38 121.34 260.6 114.93"/><path d="M281.14,110.79c.21,0,.37-.17,.38-.37,0-.21-.16-.38-.37-.38-.75,0-1.51-.16-2.21-.44-.19-.08-.41,.01-.49,.21-.08,.19,.01,.41,.21,.49,.78,.32,1.64,.49,2.48,.5h0Z"/><path d="M282.69,97.63l-2.39-1.27c-.75-.4-2.53-.79-3.38-.9l-1.08-.13c-.78-.09-1.33-.79-1.22-1.54h0c.09-.66,.67-1.16,1.36-1.18l2.69,.1c1.21-.02,2.41,.27,3.47,.85l2.18,1.18c.86,.47,1.14,1.55,.59,2.35h0c-.48,.71-1.44,.94-2.21,.53Z"/><path class="cls-56" d="M263.79,90.48l-1.13-2.77c-.88-2.16-3.27-3.26-5.49-2.54h0c-2.02,.66-2.95,2.64-3.05,4.76-.07,1.36-.07,2.54,.53,4.62,.47,1.62,1.58,2.95,3.27,2.99h0c1.29,.03,2.48-.67,3.09-1.81l2.78-5.25Z"/><path d="M276.02,114.58c.1,0,.2-.04,.28-.12,.14-.15,.13-.39-.03-.53-1.1-.99-2.04-2.13-2.8-3.41-.11-.18-.34-.24-.51-.13-.18,.11-.24,.34-.13,.51,.8,1.33,1.79,2.54,2.94,3.58,.07,.06,.16,.1,.25,.1Z"/><path d="M261.76,93.76h0c.21,0,.37-.17,.37-.38,0-.89,0-1.89-.22-2.85-.17-.77-.57-1.84-1.46-2.59-.86-.73-2.03-.96-2.98-.58-.19,.08-.29,.29-.21,.49s.3,.29,.49,.21c.68-.27,1.57-.08,2.22,.46,.73,.62,1.06,1.53,1.21,2.18,.2,.88,.2,1.8,.2,2.69,0,.21,.17,.37,.37,.37Z"/><ellipse class="cls-61" cx="307.94" cy="130.14" rx="2.67" ry="2.74"/><path d="M214.5,238.12s.06,0,.09-.01c.26-.06,26.61-6.46,39.82-7.56,19.82-1.66,31.89,4.67,32.01,4.73,.18,.1,.41,.03,.51-.15,.1-.18,.03-.41-.15-.51-.12-.07-12.36-6.49-32.43-4.82-13.27,1.11-39.67,7.52-39.93,7.58-.2,.05-.32,.25-.28,.45,.04,.17,.2,.29,.36,.29Z"/><path d="M291.75,238.77c.12,0,.24-.06,.31-.16,.12-.17,.08-.4-.1-.52l-4.17-2.88,5.84-1.79c.2-.06,.31-.27,.25-.47-.06-.2-.27-.31-.47-.25l-7.31,2.24,5.44,3.76c.06,.04,.14,.07,.21,.07Z"/><path d="M309.03,257.46c9.74,0,17.68-7.94,17.73-17.75,.04-6.81-3.7-12.95-9.74-16.02l-46.05-23.4c-.18-.09-.41-.02-.5,.16-.09,.18-.02,.41,.16,.5l46.05,23.4c5.79,2.94,9.36,8.82,9.33,15.35-.05,9.39-7.66,17-16.98,17h-.08s-14.2-.07-14.2-.07h0c-.21,0-.37,.17-.38,.37,0,.21,.17,.38,.37,.38l14.2,.07h.09Z"/><path d="M250.78,137.07l.31-.63c.04-.07,3.42-7.06,4.79-10.42,1.29,.98,5.51,4.18,8.76,6.46l1.17,.82-7.19-15.05c-.09-.19-.31-.26-.5-.18-.19,.09-.27,.31-.18,.5l5.95,12.46c-3.65-2.62-7.9-5.87-7.95-5.9l-.4-.3-.18,.46c-1.01,2.58-3.73,8.28-4.65,10.19l-15.17-26.18,4.4-2.14c.19-.09,.26-.32,.17-.5-.09-.19-.32-.27-.5-.17l-5.12,2.5,.2,.35,16.08,27.75Z"/><path d="M279.78,101.24c.5,0,.99-.13,1.37-.4,.17-.12,.22-.35,.1-.52-.12-.17-.35-.22-.52-.1-.45,.3-1.12,.35-1.69,.13s-1.02-.73-1.13-1.25c-.04-.2-.24-.33-.45-.29-.2,.04-.33,.24-.29,.45,.17,.77,.79,1.47,1.58,1.79,.32,.13,.67,.19,1.01,.19Z"/><path d="M256.77,163.03s.09,0,.14-.03c.19-.08,.29-.29,.21-.49l-6.99-17.38c-.08-.19-.3-.29-.49-.21-.19,.08-.29,.29-.21,.49l6.99,17.38c.06,.15,.2,.24,.35,.24Z"/><path d="M255.4,170.17s.03,0,.05,0c.21-.03,.35-.21,.32-.42-.25-1.98-.01-4.01,.7-5.87l.6-1.59-5.56,5.42c-.15,.14-.15,.38,0,.53,.14,.15,.38,.15,.53,0l3.28-3.2c-.39,1.56-.49,3.19-.29,4.79,.02,.19,.19,.33,.37,.33Z"/><path d="M312,157.41l8.99-5.04c.18-.1,.25-.33,.14-.51-.1-.18-.33-.24-.51-.14l-8.77,4.92-2.78-.38c-.22-.04-.39,.12-.42,.32-.03,.21,.12,.39,.32,.42l3.03,.41Z"/><path d="M311.73,161.1l8.71-4.37c.19-.09,.26-.32,.17-.5-.09-.19-.32-.26-.5-.17l-8.52,4.28-3.19-.32c-.21-.02-.39,.13-.41,.34-.02,.21,.13,.39,.34,.41l3.41,.34Z"/><path d="M310.75,164.86l7.85-3.97c.19-.09,.26-.32,.17-.5-.09-.19-.32-.26-.5-.17l-7.67,3.88-3.07-.19c-.21-.04-.39,.14-.4,.35-.01,.21,.14,.38,.35,.4l3.27,.21Z"/><path d="M299.94,153.51c.09,0,.18-.03,.25-.09l4.7-4.2c.15-.14,.17-.37,.03-.53-.14-.16-.37-.17-.53-.03l-4.7,4.2c-.15,.14-.17,.37-.03,.53,.07,.08,.18,.13,.28,.13Z"/><path d="M222.68,257.07l-.23-39.08s-10.36-5-11.82-9.07c0,0,20.71,8.83,24.9,11.55,11.29,7.34,13.2,19.37,8.68,28.33h0c-2.05,4.05-5.34,7.02-9.15,8.61h-11.32s-1.05-.35-1.05-.35Z"/><path d="M198.25,160.11h-.05s11.99-11.39,27.33-11.1c14.26,.26,19.51,9.77,20.18,11.1h2.34v.23c0,12.75-10.34,23.09-23.09,23.09h-6.86c-12.75,0-23.09-10.34-23.09-23.09v-.23h3.25Z"/></g><path class="cls-55" d="M189.39,52.54s13.66,3.67,13.96,12.33c.3,8.66-9.23,10.02-9.23,10.02l-4.74-22.35Z"/><path class="cls-3" d="M184.64,191.84l3.35-4.09,25.98-5.85-17.48-12.36-1.35-42.75c.39-7.82-3.68-15.17-10.44-18.87l-19.7-10.8-21.69,.26-20.23,33.61,7.06,15.88-1.56,32.76,56.06,12.21Z"/><path class="cls-73" d="M186.23,169.54l-6.18-2.28c.36-4.83,2.93-9.45,6.84-12.3,1.57-1.14,3.34-2.01,4.71-3.38,3.52-3.49,4.08-9.1,3.86-14.05l.02,.05,1.01,31.95,13.93,9.85,1.09,3.06-.17,.04-19.78-3.7,.05-.47c.44-3.82-1.78-7.45-5.39-8.78Z"/><path d="M190.96,165.05c.08,0,.17-.03,.24-.08l4.25-3.45-5.52-.61c-.2-.01-.39,.13-.41,.33-.02,.21,.13,.39,.33,.41l3.73,.41-2.86,2.32c-.16,.13-.19,.37-.05,.53,.07,.09,.18,.14,.29,.14Z"/><path d="M152.8,160.84c.09,0,.18-.03,.25-.1l3.51-3.21-5.45-.61c-.21-.01-.39,.13-.41,.33-.02,.21,.13,.39,.33,.41l3.8,.42-2.29,2.09c-.15,.14-.16,.38-.02,.53,.07,.08,.18,.12,.28,.12Z"/><polygon class="cls-19" points="177.58 123.63 180.32 93.33 161.72 80.94 162.74 94.3 177.58 123.63"/><path class="cls-57" d="M183.09,192.22l-.54,2.36,48.04,24.76c7.27,3.77,11.79,11.58,11.59,20.03h0c-.27,11.83-8.62,18-19.99,17.99l-98.87-.08-.16-27.41s-5.95-8.17-3.33-24.03c2.62-15.85,12.13-26.75,12.13-26.75l51.13,13.14Z"/><path class="cls-27" d="M147.55,257.31c5.55-3.42,11.16-6.86,17.67-9.55,6.65-2.76,14.39-4.73,22.4-4.76,11.29-.05,21.59,3.66,31.48,7.02,2.27,.77,4.6,1.54,7.14,1.84,2.55,.29,5.48-1.24,7.4-2.32,2.58-1.45-4.5,5.2-4.5,5.2l-5.2,2.62-76.39-.04Z"/><path d="M123.32,257.03l-.16-27.17s-1.04-1.45-2.06-4.28l11.87,7.17c5.8,3.48,8.46,12.31,5.32,18.54h0c-1.42,2.82-3.71,4.88-6.36,5.99h-7.87s-.73-.24-.73-.24Z"/><polygon points="180.01 95.47 178.94 105.63 170.14 92.56 180.01 95.47"/><path d="M131.95,156.39l1.16,8.34c.83,5.66,4.73,10.36,10.11,12.18l35.54,12.03c3.11,1.05,6.54,.55,9.22-1.36h0s-.61,1.03-.61,1.03c-2.48,4.23-7.55,6.15-12.17,4.59l-33.99-12.61c-6.02-2.03-9.07-5.69-9.21-12.1l-.04-12.11Z"/><path class="cls-19" d="M191.88,101.76c3.24-1.81,4.77-4.88,5.07-9.27l.34-3.71,2.33-.9c1.57-.61,2.23-2.34,1.41-3.72l-4.31-8.06,.25-8.98c-.04-4.04-2.48-7.47-5.72-9.56l-3.92-2.52-31.12,10.65,1.11,24.89,14.6,4.91c3.93,2.01,14.35,9.39,19.96,6.26Z"/><path class="cls-55" d="M190.54,53.07c1.71,3.07,2.8,6.56,2.45,10.02-.35,3.46-2.28,6.88-5.47,8.59-3.42,1.83-7.61,1.5-11.52,1.11-.35,1.88-1.22,3.68-2.75,4.92-1.52,1.24-3.51,1.97-5.52,2.02l-1.13,4.9,.83,14.9s1.15,5.48-3.07,7.51c-3.65,1.75-16.27-.73-21.95,3.82-5.67,4.55-5.38,9.66-5.97,16.42-.58,6.76-7.71,4.97-8.15,9.8-.44,4.83,2.04,7.45,2.04,7.45l-.88,14.85s-3.77-.92-5.66-4.93c-1.82-3.86-.67-8.88-.67-8.88,0,0-5.74-3.79-5.32-12.76s7.79-6.46,8.76-12.53c.97-6.07-.83-8.84,2.36-15.17,3.2-6.33,15.62-7.33,18.12-12.74,2.5-5.41,4.59-26.39,4.59-26.39,0,0,1.67-13.31,13.07-16.1,17.25-4.22,25.83,3.19,25.83,3.19Z"/><path class="cls-34" d="M164.75,81.29l.52,16.82c.11,3.54-2.24,6.67-5.62,7.49l-14.02,3.39,11.96-6.5c2.07-1.13,3.49-3.2,3.81-5.57l2.63-19.64,.71,4Z"/><path class="cls-34" d="M149.51,90.44s-.05,4.8-1.48,7.96c-1.43,3.16-11.65,4.05-14.08,10.06-1.99,4.93-1.75,8.6-2.15,11.68,0,0-2.7-6.89-1.19-12.89,1.51-6,13.15-7.97,15.17-10.16,1.79-1.94,3.73-6.64,3.73-6.64Z"/><path class="cls-34" d="M134.07,114.82l-.79,9.85c-.16,2.01-1.23,3.84-2.89,4.94l-3.7,2.46,3.19-.72c3.13-.71,5.27-3.67,5-6.93l-.8-9.6Z"/><path class="cls-34" d="M188.09,53.19s-1.19,5.48-7.48,6.95c-6.28,1.46-13.23-2.69-15.86,2.75,0,0,.04-4.77,8.38-7.02,6.38-1.72,7.12-5.49,7.12-5.49,0,0,2.33,.27,4.11,1,1.91,.78,3.72,1.81,3.72,1.81Z"/><path class="cls-34" d="M119.27,132.72c-.27,2.32,.16,4.72,1.2,6.81,1.04,2.08,2.7,3.84,4.7,4.99-1.19,1.26-1.3,3.21-.81,4.88s1.59,3.09,2.78,4.34c-.12-1.81-.13-3.81,.09-5.61,.22-1.8,.81-3.59,1.96-4.97-2.6-.35-4.94-1.87-6.66-3.9-1.72-2.02-2.55-3.97-3.27-6.55Z"/><path d="M119.8,235.84s.06,0,.09-.01c.25-.07,25.51-6.61,38.17-7.74,19-1.69,30.56,4.77,30.67,4.84,.18,.1,.41,.04,.51-.14,.1-.18,.04-.41-.14-.51-.12-.07-11.87-6.66-31.11-4.93-12.72,1.14-38.04,7.7-38.3,7.76-.2,.05-.32,.26-.27,.46,.04,.17,.2,.28,.36,.28Z"/><path d="M193.87,236.5c.11,0,.23-.05,.3-.15,.12-.17,.09-.4-.08-.52l-4.02-2.97,5.61-1.84c.2-.06,.3-.28,.24-.47-.07-.2-.28-.3-.47-.24l-7,2.29,5.19,3.83c.07,.05,.14,.07,.22,.07Z"/><path class="cls-19" d="M203.67,192.39l17.21-1.13c1.09-.07,2.14-.48,3-1.17l6.48-5.21c1.2-.96,1.25-2.8,.11-3.83l-1.76-1.59-13.96,4.77-9.03-.6-2.05,8.77Z"/><path class="cls-43" d="M208.79,187.28c.83-.82,1.47-1.67,2.42-2.34,.45-.32,.92-.6,1.4-.86l2.15,.14,13.05-4.46c.38-.04,.76-.08,1.14-.1l1.53,1.39c1.14,1.04,1.09,2.87-.11,3.83l-6.48,5.21c-.18,.15-.37,.27-.57,.39-2.27-.13-4.53-.69-6.75-1.25-2.59-.65-5.18-1.3-7.77-1.95Z"/><path d="M219.85,186.44s.04,0,.07,0l2.38-.46,4.89-3.12c.17-.11,.23-.34,.11-.52-.11-.17-.35-.23-.52-.11l-4.82,3.08-2.17,.4c-.2,.04-.34,.23-.3,.44,.03,.18,.19,.31,.37,.31Z"/><path class="cls-28" d="M215.72,160.11h6.86c12.75,0,23.09,10.35,23.09,23.09v.23h-53.05v-.23c0-12.75,10.35-23.09,23.09-23.09Z" transform="translate(438.31 343.55) rotate(-180)"/><path class="cls-19" d="M191.73,177.37l9.46,2.84,.04-.03c2.5-1.76,5.69-2.16,8.54-1.07l4.36,1.67,5.5-.42c1.07-.08,1.97,.81,1.93,1.9h0c-.03,.87-.66,1.59-1.5,1.74l-12.89,2.17-3.48,6.24-15.73-4.82,3.76-10.22Z"/><g><path class="cls-46" d="M109.03,222.27l20.58,12.35c5.49,3.3,7.5,10.63,4.52,16.53h0c-2.63,5.21-8.38,7.73-13.72,6l-20.44-6.62,9.06-28.27Z"/><path class="cls-62" d="M59.44,208.34l39.33,7.41,12.36,10.55-13.22,20.01-27.71,.72c-11.11,.29-21.03-5.42-21.18-16.07h0c-.05-3.87,1.2-8.13,3.28-11.45,1.78-2.83,7.13-11.17,7.13-11.17Z"/><polygon class="cls-64" points="98.81 215.78 114.01 225.11 111.85 228.67 97.22 215.71 98.81 215.78"/><polygon class="cls-46" points="103.64 173.77 108.65 182.26 128.85 195.13 128.02 201.97 97.19 197.3 87.74 181 103.64 173.77"/><path class="cls-46" d="M38.45,260.4s8.87-2.99,11.95-3.09c9.13-.31,67.32-.09,67.32-.09,4.36,0,8.94-2.3,11.06-5.95h0c2.93-5.04,1.52-11.38-3.3-14.85l-16.43-10.35-9.44,14.57-4.75-.64c-6.25-.84-12.61-.24-18.56,1.74l-3.5,1.17-4.85,2.12-2.11-1.91c-1.63-1.48-3.88-2.16-6.11-1.86h0c-3.12,.43-5.48,3.71-6.05,6.68l-10.06,6.94s-5.78-.27-5.23,4.75l.06,.77Z"/><path class="cls-17" d="M59.61,208.28s2.22-33.04,4.35-44.57c2.02-10.94,7.58-13.7,11.26-16.05l2.12-1.35,12.52,6.98,9.71,19.46c5.92,13.46,7.41,33.21-.78,43.03l-2.18-.24"/><path class="cls-76" d="M68.15,166.02c-2.35,1.62-4.66,3.68-5.35,6.45l-.06-.2c.4-3.38,.8-6.35,1.21-8.55,1.83-9.91,6.56-13.1,10.18-15.37l2.57,2.54c1.05,3.32,.34,7.14-1.83,9.86-1.78,2.23-4.36,3.65-6.71,5.26Z"/><path class="cls-17" d="M98.75,177.02l6.56-2.93-9.5-16.39c-1.18-1.68-2.39-3.34-5.7-4.68l-3.31-1.52,11.96,25.52Z"/><path class="cls-46" d="M119.98,203.69l5.41,3.68c1.44,.98,3.21,1.49,5.02,1.46l4.26-.09c1.68-.04,3.3-.54,4.63-1.46l5.43-3.71-24.75,.12Z"/><path class="cls-44" d="M139.76,206.97c-1.58-.24-3.14-.62-4.69-1.01-2.59-.65-5.18-1.3-7.77-1.95,.12-.12,.23-.23,.34-.35l17.11-.08-4.98,3.4Z"/><g><path class="cls-7" d="M141.97,191.17l2.15-3.45c2.19-3.51,2.36-7.9,.46-11.57l-2.33-4.49-2.52,4.82c-1.85,3.55-1.76,7.81,.25,11.28l1.98,3.42Z"/><path class="cls-7" d="M141.99,191.07l3.96-.92c4.02-.93,7.26-3.92,8.51-7.86l1.53-4.82-5.19,1.63c-3.82,1.2-6.77,4.28-7.8,8.15l-1.02,3.82Z"/><path class="cls-7" d="M142.06,191.07l-3.96-.92c-4.02-.93-7.26-3.92-8.51-7.86l-1.53-4.82,5.19,1.63c3.82,1.2,6.77,4.28,7.8,8.15l1.02,3.82Z"/><path class="cls-7" d="M141.94,190.82l-3.44-2.17c-3.49-2.21-5.56-6.09-5.45-10.22l.14-5.06,4.36,3.25c3.21,2.39,4.98,6.27,4.68,10.26l-.3,3.94Z"/><path class="cls-7" d="M141.92,190.82l3.44-2.17c3.49-2.21,5.56-6.09,5.45-10.22l-.14-5.06-4.36,3.25c-3.21,2.39-4.98,6.27-4.68,10.26l.3,3.94Z"/><path class="cls-7" d="M141.97,191.03l-4.03,.57c-4.09,.58-8.18-1.03-10.77-4.25l-3.17-3.94,5.43-.35c4-.26,7.85,1.54,10.22,4.78l2.33,3.19Z"/><path class="cls-7" d="M141.86,191.03l4.03,.57c4.09,.58,8.18-1.03,10.77-4.25l3.17-3.94-5.43-.35c-4-.26-7.85,1.54-10.22,4.78l-2.33,3.19Z"/></g><g><path class="cls-11" d="M156.01,199l2.15-3.45c2.19-3.51,2.36-7.9,.46-11.57l-2.33-4.49-2.52,4.82c-1.85,3.55-1.76,7.81,.25,11.28l1.98,3.42Z"/><path class="cls-11" d="M156.04,198.9l3.96-.92c4.02-.93,7.26-3.92,8.51-7.86l1.53-4.82-5.19,1.63c-3.82,1.2-6.77,4.28-7.8,8.15l-1.02,3.82Z"/><path class="cls-11" d="M156.1,198.9l-3.96-.92c-4.02-.93-7.26-3.92-8.51-7.86l-1.53-4.82,5.19,1.63c3.82,1.2,6.77,4.28,7.8,8.15l1.02,3.82Z"/><path class="cls-23" d="M155.99,198.65l-3.44-2.17c-3.49-2.21-5.56-6.09-5.45-10.22l.14-5.06,4.36,3.25c3.21,2.39,4.98,6.27,4.68,10.26l-.3,3.94Z"/><path class="cls-23" d="M155.97,198.65l3.44-2.17c3.49-2.21,5.56-6.09,5.45-10.22l-.14-5.06-4.36,3.25c-3.21,2.39-4.98,6.27-4.68,10.26l.3,3.94Z"/><path class="cls-23" d="M156.02,198.86l-4.03,.57c-4.09,.58-8.18-1.03-10.77-4.25l-3.17-3.94,5.43-.35c4-.26,7.85,1.54,10.22,4.78l2.33,3.19Z"/><path class="cls-23" d="M155.9,198.86l4.03,.57c4.09,.58,8.18-1.03,10.77-4.25l3.17-3.94-5.43-.35c-4-.26-7.85,1.54-10.22,4.78l-2.33,3.19Z"/></g><g><path class="cls-11" d="M128.35,199l2.15-3.45c2.19-3.51,2.36-7.9,.46-11.57l-2.33-4.49-2.52,4.82c-1.85,3.55-1.76,7.81,.25,11.28l1.98,3.42Z"/><path class="cls-11" d="M128.37,198.9l3.96-.92c4.02-.93,7.26-3.92,8.51-7.86l1.53-4.82-5.19,1.63c-3.82,1.2-6.77,4.28-7.8,8.15l-1.02,3.82Z"/><path class="cls-11" d="M128.44,198.9l-3.96-.92c-4.02-.93-7.26-3.92-8.51-7.86l-1.53-4.82,5.19,1.63c3.82,1.2,6.77,4.28,7.8,8.15l1.02,3.82Z"/><path class="cls-23" d="M128.32,198.65l-3.44-2.17c-3.49-2.21-5.56-6.09-5.45-10.22l.14-5.06,4.36,3.25c3.21,2.39,4.98,6.27,4.68,10.26l-.3,3.94Z"/><path class="cls-23" d="M128.31,198.65l3.44-2.17c3.49-2.21,5.56-6.09,5.45-10.22l-.14-5.06-4.36,3.25c-3.21,2.39-4.98,6.27-4.68,10.26l.3,3.94Z"/><path class="cls-23" d="M128.36,198.86l-4.03,.57c-4.09,.58-8.18-1.03-10.77-4.25l-3.17-3.94,5.43-.35c4-.26,7.85,1.54,10.22,4.78l2.33,3.19Z"/><path class="cls-23" d="M128.24,198.86l4.03,.57c4.09,.58,8.18-1.03,10.77-4.25l3.17-3.94-5.43-.35c-4-.26-7.85,1.54-10.22,4.78l-2.33,3.19Z"/></g><path d="M74.72,200.8l-5.05-18.17,1.91,3.03,32.41,17.3c-.15,1.02-.35,2.01-.58,2.98l-19.1,1.05c-4.39,.18-8.51-1.92-9.59-6.19Z"/><path class="cls-25" d="M123.95,196.85h38.62c3.22,0,5.83,2.61,5.83,5.83v.94h-50.28v-.94c0-3.22,2.61-5.83,5.83-5.83Z" transform="translate(283.59 402.54) rotate(-179.17)"/><polygon class="cls-23" points="139.09 196.81 145.28 196.82 145.28 194.01 139.32 194.01 139.09 196.81"/><path class="cls-46" d="M89.43,179.37l3.9,8.72,27.02,8.79,.49-.29c1.49-.89,3.28-1.09,4.92-.54h0c1.81,.6,3.24,2.03,3.87,3.88l.18,.54,5.33,1c1.06,.2,1.73,1.29,1.45,2.37h0c-.23,.89-1.05,1.47-1.94,1.4l-15.84-1.39-31.87,.57c-4.32,.08-8.28-2.43-10.16-6.43l-5.2-12.4,17.85-6.21Z"/><ellipse class="cls-46" cx="84.85" cy="152.72" rx="2.35" ry="9.94" transform="translate(-83.14 104.73) rotate(-45)"/><polygon class="cls-46" points="89.64 157.2 94.08 145.52 79.36 135.03 74.56 146.11 89.64 157.2"/><path d="M92.57,149.66s-5.05-2.56-5.98-3.81l4.65,6.97,1.33-3.16Z"/><path class="cls-46" d="M83.3,144.36s4.03,3.47,9.17,5.52c7.18,2.86,13.26,.38,15.14-4.83,.74-2.05,.52-5.11,.52-5.11l1.24-.62c.92-.43,1.18-1.71,.56-2.45-1.41-1.7-3.68-3.37-4.05-6.46-.27-2.27,.03-6.85,.03-6.85l-17.24-5.6-5.37,26.39Z"/><path class="cls-66" d="M83.3,157.74c-.79-6.02,2.98-8.6,3.21-11.79,.39-5.28-1.29-8.38-1.29-8.38l1.41-8.8,5.05-7.95,4.92,1.19,9.55,1.61s1.85-2.63,1.23-6.31c-.77-4.54-3.54-8.54-15.15-12.69-14.28-5.11-19.35,2.11-19.35,2.11,0,0-6.82,.52-9.86,6.19-5.5,10.26,.61,23.74,.36,37.74,0,0,19.94,7.22,19.92,7.08Z"/><path d="M93.12,188.53s.09,0,.13-.02c.19-.07,.29-.29,.22-.48l-6.69-18.03c-.07-.19-.29-.29-.48-.22-.19,.07-.29,.29-.22,.48l6.69,18.03c.06,.15,.2,.24,.35,.24Z"/><path d="M120.34,197.25c.16,0,.31-.1,.36-.26,.06-.2-.05-.41-.24-.47l-27.31-8.64c-1.89-.06-3.78,.54-5.32,1.66-.17,.12-.2,.36-.08,.52,.12,.17,.36,.2,.52,.08,1.39-1.01,3.09-1.58,4.8-1.52l27.16,8.61s.08,.02,.11,.02Z"/><path d="M104.84,185.05c.11,0,.21-.05,.29-.13,.85-1.02,2.02-1.79,3.29-2.17,.2-.06,.31-.27,.25-.47-.06-.2-.26-.31-.47-.25-1.41,.42-2.71,1.28-3.65,2.41-.13,.16-.11,.39,.05,.53,.07,.06,.16,.09,.24,.09Z"/><path d="M134.95,205.47c.42,0,.83-.15,1.16-.42,.38-.32,.61-.77,.64-1.26,.01-.21-.14-.39-.35-.4-.21-.03-.39,.14-.4,.35-.02,.29-.15,.55-.38,.74-.22,.19-.5,.28-.8,.24l-7.05-.76c-.22-.02-.39,.13-.41,.33s.13,.39,.33,.41l7.05,.76c.07,0,.13,.01,.2,.01Z"/><path d="M107.62,139.52c.06,0,.12-.02,.18-.05l1.12-.63c.18-.1,.25-.33,.14-.51-.1-.18-.33-.24-.51-.14l-1.12,.63c-.18,.1-.25,.33-.14,.51,.07,.12,.2,.19,.33,.19Z"/><path class="cls-46" d="M97.22,115.78s.09,2.47-.73,5.2c-.81,2.73-1.38,3.9-1.38,3.9l1.45,.41s.64-1.35,1.05-3.89-.39-5.63-.39-5.63Z"/><path class="cls-46" d="M99.4,118.45s-.06,2.01-.41,3.24c-.35,1.23-.97,2.17-.97,2.17l1.03,.15s.54-.87,.7-2.22-.35-3.34-.35-3.34Z"/><path class="cls-46" d="M105.8,120.04s-.06,2.01-.41,3.24-.97,2.17-.97,2.17l1.03,.15s.54-.87,.7-2.22-.35-3.34-.35-3.34Z"/><path d="M106.78,244.59c.13,0,.26-.07,.33-.19,.1-.18,.04-.41-.14-.51-9.52-5.44-21.7-6.13-31.77-1.8-.19,.08-.28,.3-.2,.49,.08,.19,.3,.28,.49,.2,9.86-4.25,21.78-3.57,31.1,1.76,.06,.03,.12,.05,.19,.05Z"/><path d="M103.02,242.59c.06,0,.12-.01,.18-.05l4.1-2.25c.18-.1,.25-.33,.15-.51-.1-.18-.33-.25-.51-.15l-4.1,2.25c-.18,.1-.25,.33-.15,.51,.07,.13,.2,.2,.33,.2Z"/><path d="M118.93,257.46c6.44,0,11.68-5.24,11.68-11.68,0-4.04-2.04-7.73-5.46-9.88l-20.47-12.9c-.17-.11-.41-.06-.52,.12-.11,.18-.06,.41,.12,.52l20.47,12.9c3.2,2.01,5.11,5.47,5.11,9.25,0,6.03-4.9,10.93-10.93,10.93-.21,0-.38,.17-.38,.37s.17,.38,.37,.38Z"/><path d="M99.07,131.49h0c.14,.04,.29-.04,.34-.18,.23-.67,.86-1.22,1.56-1.37,.69-.15,1.42,.08,1.91,.58,.47,.49,.72,1.23,.66,1.98-.01,.15,.09,.27,.24,.27,.14,0,.27-.12,.28-.27,.07-.9-.23-1.79-.8-2.38-.61-.62-1.51-.9-2.37-.72-.89,.19-1.69,.89-1.98,1.75-.05,.14,.02,.29,.15,.33Z"/><path d="M101.74,129.66c-.26,.59-.39,1.23-.38,1.85,0,.15,.02,.3,.09,.43,.1,.16,.27,.24,.44,.31,.63,.25,1.29,.44,1.97,.56-.11-1.37-.85-2.77-2.13-3.15Z"/><path class="cls-54" d="M103.13,127.32c.52-.23,1.1-.67,.94-1.16-.13-.4-.67-.54-1.13-.57-2.15-.17-4.39,.52-6.02,1.85-1.55,1.26,.06,1.52,1.29,1.29,1.68-.31,3.36-.71,4.91-1.41Z"/><path d="M107.27,144.56c.16,0,.31-.11,.36-.27,.06-.2-.06-.41-.26-.46-1.33-.38-2.55-1.07-3.54-1.99-.15-.14-.39-.13-.53,.02-.14,.15-.13,.39,.02,.53,1.08,1.01,2.41,1.76,3.85,2.17,.03,0,.07,.01,.1,.01Z"/><path class="cls-46" d="M88.97,129.35l-1.9-2.15c-1.48-1.67-4.03-1.94-5.86-.61h0c-1.66,1.21-1.92,3.27-1.36,5.2,.36,1.24,.71,2.3,1.91,3.98,.93,1.31,2.37,2.17,3.94,1.7h0c1.2-.36,2.09-1.36,2.3-2.56l.96-5.56Z"/><path d="M86.36,132.29h0c.21,0,.37-.17,.37-.38-.01-1.03-.51-2.05-1.32-2.72-.81-.67-1.92-.98-2.98-.85-.21,.03-.35,.21-.32,.42,.03,.21,.22,.34,.42,.32,.86-.11,1.75,.14,2.4,.68,.65,.53,1.04,1.34,1.05,2.15,0,.21,.17,.37,.37,.37Z"/><g><path class="cls-26" d="M72.7,106.78c.18,0,.26-.03,.3-.36,0,0,0,0,0,0h.03s.02-1.15,.02-1.15c0-.12,0-.26,0-.4,0-.2,0-.39,0-.55l.02-1.48h-.04c-.04-.38-.13-.38-.33-.38-.18-.01-.27,0-.32,.37h-.06s0,.08,0,.21h0c0,.35,0,.65-.01,.93,0,.14,0,.29,0,.44-.3-.66-.64-1.3-1.01-1.93-.1-.18-.33-.24-.51-.13-.18,.11-.24,.33-.13,.51,.66,1.11,1.2,2.28,1.63,3.49,0,.04,0,.07,0,.07h.03s.03,.06,.04,.08c.05,.29,.14,.29,.3,.3h.05Z"/><path class="cls-26" d="M63.03,113.06c.13,0,.26-.07,.33-.2,2.91-5.42,9.49-5.99,9.56-5.99,.21-.02,.36-.2,.35-.4-.01-.21-.18-.37-.4-.35-.29,.02-7.06,.6-10.16,6.38-.1,.18-.03,.41,.15,.51,.06,.03,.12,.04,.18,.04Z"/><path class="cls-26" d="M72.89,106.88c.12,0,.23-.06,.31-.16,.05-.07,5.11-6.92,18.92-1.97,.19,.07,.41-.03,.48-.23,.07-.19-.03-.41-.23-.48-14.39-5.14-19.57,1.94-19.79,2.25-.12,.17-.08,.4,.09,.52,.07,.05,.14,.07,.22,.07Z"/><path class="cls-26" d="M107.4,117.46s.04,0,.06,0c.2-.04,.34-.23,.31-.43-.81-4.78-3.74-8.81-15.4-12.98-.19-.07-.41,.03-.48,.23-.07,.19,.03,.41,.23,.48,11.32,4.05,14.14,7.88,14.91,12.4,.03,.18,.19,.31,.37,.31Z"/></g></g><path class="cls-13" d="M243.41,160.27s-4.92-10.98-20.26-11.26c-15.34-.28-27.33,11.1-27.33,11.1l47.59,.16Z"/><path class="cls-19" d="M174.6,76.97l-2.13-2.56c-1.66-1.99-4.53-2.31-6.58-.73h0c-1.87,1.44-2.16,3.9-1.53,6.21,.4,1.48,.8,2.75,2.14,4.76,1.04,1.57,2.67,2.59,4.43,2.03h0c1.35-.43,2.35-1.62,2.59-3.06l1.08-6.64Z"/><path d="M191.73,177.74h.01c.21,0,.37-.18,.36-.39-.11-3.48-2.12-6.59-5.14-7.92l-30.1-12.03,.12-23.1c0-.21-.19-.39-.37-.38-.21,0-.37,.17-.38,.37l-.12,23.61,30.56,12.21c2.74,1.21,4.58,4.06,4.68,7.25,0,.2,.17,.36,.37,.36Z"/><path d="M156.78,138.84c.13,0,.25-.06,.32-.18l2.46-4.04c.11-.18,.05-.41-.12-.52-.18-.11-.41-.05-.52,.12l-2.46,4.04c-.11,.18-.05,.41,.12,.52,.06,.04,.13,.05,.2,.05Z"/><path d="M179.84,166.87c.17,0,.32-.11,.36-.28,0-.03,.8-2.91,1.8-5.25,1.19-2.77,2.52-4.09,3.93-5.49,1.25-1.23,2.54-2.51,3.71-4.82,3.47-6.85,.83-16.94,.71-17.37-.05-.2-.26-.32-.46-.27-.2,.05-.32,.26-.27,.46,.03,.1,2.68,10.24-.66,16.83-1.12,2.21-2.31,3.38-3.57,4.63-1.4,1.38-2.85,2.82-4.1,5.73-1.02,2.38-1.82,5.32-1.83,5.34-.05,.2,.06,.41,.26,.46,.03,0,.07,.01,.1,.01Z"/><path d="M171.78,79.65h0c.21,0,.37-.17,.37-.38-.02-1.21-.56-2.4-1.46-3.19-.9-.79-2.15-1.16-3.32-1-.21,.03-.35,.22-.32,.42,.03,.21,.2,.36,.42,.32,.96-.13,1.98,.17,2.72,.82,.74,.65,1.19,1.63,1.2,2.63,0,.21,.17,.37,.37,.37Z"/><path class="cls-55" d="M167.77,72.32s.28,13.84,.21,18.45c-.11,7.21,.84,4.86,2.37,9.36,.94,2.75-3.3,7.43-3.3,7.43,0,0,5.25-3.39,5.51-7.49,.28-4.41-2.33-4.43-2.42-7.93-.1-3.5-.11-20.9-.11-20.9l-2.24,1.07Z"/><path d="M196.87,87.82s.09,0,.14-.03l1.38-.54c.19-.08,.29-.29,.21-.49-.07-.19-.29-.29-.49-.21l-1.38,.54c-.19,.08-.29,.29-.21,.49,.06,.15,.2,.24,.35,.24Z"/><path d="M193.37,75.66c-.1,.02-.21-.01-.29-.09-.59-.61-1.02-.8-1.86-.8-.86,0-2.11,.64-2.7,1.22-.12,.12-.33,.13-.45,.01-.13-.12-.13-.31,0-.44,.69-.68,2.09-1.41,3.17-1.41,1.01,0,1.62,.26,2.32,1,.12,.12,.11,.32-.02,.43-.05,.04-.11,.07-.17,.08Z"/><path d="M193.64,75.28c.44,.59,.31,1.5-.27,1.98s-1.55,.43-2.07-.09c-.62-.63-.52-1.76-.02-2.51,.48-.72,1.86-.06,2.37,.62Z"/><ellipse class="cls-75" cx="183.45" cy="82.43" rx="4.89" ry="5.78" transform="translate(-17.41 92.58) rotate(-27.09)"/><path class="cls-54" d="M193.87,72.91c-.88-.48-1.85-.85-2.71-.83s-1.37,.18-2.19,.45c-.99,.32-1.97,.65-2.96,.97-.24,.08-.44-.21-.42-.49s.19-.5,.36-.7c1.43-1.66,2.76-2.56,4.84-2.86,2.27-.35,3.38,.61,3.86,1.05s.81,1.15,.68,1.81-.88,.92-1.46,.6Z"/><path d="M196.27,93.51s.07,0,.1,0c.21,0,.37-.17,.37-.38s-.21-.4-.38-.37c-.03,0-.06,0-.09,0-2.03,0-4.05-1.11-5.16-2.86-.11-.17-.34-.23-.52-.12-.17,.11-.23,.34-.12,.52,1.24,1.95,3.5,3.2,5.79,3.2Z"/><path d="M209.2,187.49c.11,0,.21-.05,.29-.13l.71-.85,3.89-.92,6.17-1.39c.2-.05,.33-.25,.28-.45-.05-.2-.24-.33-.45-.28l-10.31,2.37-.87,1.04c-.13,.16-.11,.39,.05,.53,.07,.06,.16,.09,.24,.09Z"/><path d="M218.76,257.47c10.73,0,19.5-8.56,19.55-19.13,.04-7.34-4.08-13.96-10.74-17.27l-50.87-25.26c-.18-.09-.41-.02-.5,.17-.09,.19-.02,.41,.17,.5l50.87,25.26c6.41,3.18,10.36,9.54,10.33,16.6-.06,10.16-8.48,18.38-18.8,18.38h-.09s-15.69-.07-15.69-.07h0c-.21,0-.37,.17-.38,.37,0,.21,.17,.38,.37,.38l15.69,.07h.09Z"/><g><path class="cls-13" d="M231.59,152.39l.41-.39c.84-.79,1.44-1.79,1.76-2.89,.04-.13-.04-.27-.17-.31-.14-.04-.27,.04-.31,.17-.23,.83-.65,1.59-1.21,2.24l-.08-4.03c0-.14-.11-.23-.25-.25-.14,0-.25,.12-.25,.25l.1,5.19Z"/><path class="cls-13" d="M201.71,156.57l.41-.39c.84-.79,1.44-1.79,1.76-2.89,.04-.13-.04-.27-.17-.31-.14-.04-.27,.04-.31,.17-.23,.83-.65,1.59-1.21,2.24l-.07-4.03c0-.14-.11-.22-.25-.25-.14,0-.25,.12-.25,.25l.1,5.19Z"/><path class="cls-13" d="M239.91,156.17s.09-.01,.14-.04l1.46-.94c.12-.07,.15-.23,.07-.35-.08-.12-.23-.15-.35-.07l-1.46,.94c-.12,.07-.15,.23-.07,.35,.05,.07,.13,.11,.21,.11Z"/><path class="cls-13" d="M217.02,150.41l-.38-.58c-.39-.6-.67-1.26-.83-1.96-.03-.13-.17-.22-.3-.19s-.22,.17-.19,.3c.13,.55,.33,1.09,.59,1.58-.13-.03-.26-.06-.39-.09-.71-.16-1.32-.29-1.92-.78-.11-.09-.26-.07-.35,.04-.09,.11-.07,.26,.04,.35,.69,.57,1.39,.72,2.13,.88,.3,.07,.62,.13,.95,.24l.66,.2Z"/><path class="cls-15" d="M224.05,154.57l1.93-2.79c.08-.11,.05-.27-.06-.35-.12-.08-.27-.05-.35,.06l-1.21,1.76c-.15-1.05-.26-2.12-.33-3.17,0-.14-.13-.25-.27-.23-.14,0-.24,.13-.23,.27,.09,1.27,.23,2.56,.43,3.83l.1,.62Z"/><path class="cls-15" d="M212.07,159.63s.09-.01,.13-.04c.12-.08,.15-.23,.08-.35-.45-.71-.77-1.49-.95-2.32-.03-.13-.15-.22-.3-.19-.13,.03-.22,.16-.19,.3,.19,.88,.53,1.72,1.02,2.48,.05,.07,.13,.12,.21,.12Z"/><path class="cls-15" d="M236.57,158.82l.44-.5c.46-.53,.86-1.11,1.2-1.73,.07-.12,.02-.27-.1-.34-.12-.07-.27-.02-.34,.1-.21,.38-.45,.75-.71,1.1v-1.89c-.01-.14-.12-.25-.26-.25h0c-.14,0-.25,.11-.25,.25l.02,3.26Z"/></g><path d="M281.34,139.61h53.13c.21,0,.38-.17,.38-.37,0-.21-.17-.38-.37-.38h-53.13c-.21,0-.38,.17-.38,.37,0,.21,.17,.38,.37,.38Z"/><path class="cls-49" d="M47.72,257.66c19.72-9.72,16,3.01,37.21-6.25,23.23-10.14,36.11,12.98,44.7-2.8-1.64,4.71-5.84,8.6-10.82,8.84-12.19,.28-59.83-.82-71.09,.22Z"/><path class="cls-58" d="M236.78,179.78c1.95,4.03,4.35,6.28,8.07,6.91s7.5-.31,11.11-1.38c8.5-2.51,17.15-4.84,25.06-8.84l-19.65,12.43c-7.9,5-18.38,2.28-22.85-5.94l-1.73-3.19Z"/><polygon class="cls-18" points="348.61 257.07 353.45 232.5 386.63 229.51 389.8 256.79 348.61 257.07"/><path d="M351.86,240.67l.53-.2-1.1,7.43,5.67-.4-1.72,3.34c-1.45,2.74-3.69,5.03-6.6,6.03l3.22-16.2Z"/><path class="cls-14" d="M353.45,232.5h0s33.19-2.98,33.19-2.98c0,0-5.06,3.28-7.4,4.6-4.72,2.66-17.51,7.16-25.79-1.61Z"/><path class="cls-9" d="M369.69,205.13l-2.97,14.18c-.32,1.51-.04,3.17,.71,4.32l.08,.13c1.14,1.74,3.01,1.83,4.2,.21h0c.82-1.11,1.13-2.8,.82-4.38l-2.85-14.47Z"/><path class="cls-14" d="M366.94,232.15c.62,0,1.16-.25,1.62-.74,2.67-2.84,1.63-13.59,1.58-14.05l-.75,.07c.01,.11,1.05,10.86-1.39,13.46-.33,.35-.69,.51-1.13,.5l-.03,.75s.06,0,.09,0Z"/><path class="cls-9" d="M312.26,184.41l-2.97,14.18c-.32,1.51-.04,3.17,.71,4.32l.08,.13c1.14,1.74,3.01,1.83,4.2,.21h0c.82-1.11,1.13-2.8,.82-4.38l-2.85-14.47Z"/><path class="cls-14" d="M309.5,211.42c.62,0,1.16-.25,1.62-.74,2.67-2.84,1.63-13.59,1.58-14.05l-.75,.07c.01,.11,1.05,10.86-1.39,13.46-.33,.35-.69,.53-1.13,.5l-.03,.75s.06,0,.09,0Z"/><path class="cls-9" d="M332.19,202.29l-2.97,14.18c-.32,1.51-.04,3.17,.71,4.32l.08,.13c1.14,1.74,3.01,1.83,4.2,.21h0c.82-1.11,1.13-2.8,.82-4.38l-2.85-14.47Z"/><path class="cls-12" d="M329.44,229.3c.62,0,1.16-.25,1.62-.74,2.67-2.84,1.63-13.59,1.58-14.05l-.75,.07c.01,.11,1.05,10.86-1.39,13.46-.33,.35-.71,.52-1.13,.5l-.03,.75s.06,0,.09,0Z"/><rect class="cls-14" x="357.68" y="234.72" width="3.05" height="13.14" rx="1.52" ry="1.52" transform="translate(718.41 482.59) rotate(-180)"/><rect class="cls-14" x="360.64" y="234.35" width="5.4" height="8.42" rx="2.7" ry="2.7" transform="translate(726.68 477.13) rotate(180)"/><polygon class="cls-10" points="376.15 256.96 381.8 209.2 405.56 209.2 409.4 257.09 376.15 256.96"/><path class="cls-12" d="M405.56,209.2s-2.58,7.44-11.91,7.44c-9.33,0-11.85-7.44-11.85-7.44h23.76Z"/><path class="cls-9" d="M394.07,187.1l-3.3,13.86c-.35,1.48-.05,3.1,.78,4.22l.09,.12c1.25,1.7,3.32,1.78,4.64,.2h0c.9-1.09,1.26-2.74,.91-4.28l-3.12-14.13Z"/><path class="cls-12" d="M392.08,211.73c.47,0,.88-.19,1.23-.56,1.93-2.06,1.19-9.74,1.16-10.07l-.75,.07c.21,2.13,.45,7.98-.96,9.48-.21,.23-.45,.34-.72,.32l-.03,.75s.04,0,.07,0Z"/><polygon class="cls-18" points="298.22 257.62 303.6 207.06 323.15 207.45 326.9 257.34 298.22 257.62"/><path class="cls-14" d="M307.7,231.21v-22.91h1.13v23.03c0,1.83,.56,3.58,1.48,5.13,.37,.62,.59,1.42,.59,2.28,0,2.02-1.2,3.65-2.68,3.65-1.48,0-2.68-1.63-2.68-3.65,0-.89,.23-1.7,.62-2.33,.95-1.56,1.54-3.34,1.54-5.2Z"/><path class="cls-14" d="M308.77,242.37l.11-29.65h1.13l-.11,29.77c0,1.83,.56,3.58,1.48,5.13,.37,.62,.59,1.42,.59,2.28,0,2.02-1.2,3.65-2.68,3.65-1.48,0-2.68-1.63-2.68-3.65,0-.89,.23-1.7,.62-2.33,.95-1.56,1.54-3.34,1.54-5.2Z"/><path class="cls-14" d="M303.74,206.98h0s19.58,.28,19.58,.28c0,0-3.98,4.07-9.23,5.46-5.24,1.39-9.73-.3-10.35-5.74Z"/><polygon class="cls-10" points="474.73 257 476.52 229.03 494.53 228.21 496.83 256.86 474.73 257"/><path class="cls-12" d="M494.57,228.08s-1.99,5.54-9.18,5.54c-7.19,0-8.86-4.65-8.86-4.65l18.04-.89Z"/><polygon class="cls-10" points="343.24 256.9 340.82 227.83 322.77 224.47 316.58 257.43 343.24 256.9"/><path class="cls-12" d="M341.08,227.9s-1.38,5.29-8.33,5.09c-9.33-.27-9.95-8.39-9.95-8.39l18.27,3.3Z"/><g><path class="cls-22" d="M335.64,256.75l2.57-4.12c2.61-4.18,2.82-9.43,.55-13.8l-2.77-5.36-3,5.75c-2.21,4.24-2.1,9.31,.29,13.45l2.36,4.08Z"/><path class="cls-22" d="M335.67,256.63l4.73-1.1c4.8-1.11,8.66-4.67,10.15-9.37l1.83-5.75-6.19,1.94c-4.56,1.43-8.07,5.1-9.3,9.72l-1.22,4.56Z"/><path class="cls-22" d="M335.75,256.63l-4.73-1.1c-4.8-1.11-8.66-4.67-10.15-9.37l-1.83-5.75,6.19,1.94c4.56,1.43,8.07,5.1,9.3,9.72l1.22,4.56Z"/><path class="cls-16" d="M335.61,256.34l-4.1-2.59c-4.16-2.63-6.63-7.27-6.5-12.19l.17-6.03,5.2,3.87c3.83,2.86,5.94,7.47,5.58,12.24l-.35,4.7Z"/><path class="cls-16" d="M335.59,256.34l4.1-2.59c4.16-2.63,6.63-7.27,6.5-12.19l-.17-6.03-5.2,3.87c-3.83,2.86-5.94,7.47-5.58,12.24l.35,4.7Z"/><path class="cls-16" d="M335.65,256.58l-4.8,.69c-4.88,.7-9.76-1.23-12.85-5.07l-3.78-4.7,6.47-.42c4.77-.31,9.37,1.84,12.19,5.7l2.78,3.81Z"/><path class="cls-16" d="M335.52,256.58l4.8,.69c4.88,.7,9.76-1.23,12.85-5.07l3.78-4.7-6.47-.42c-4.77-.31-9.37,1.84-12.19,5.7l-2.78,3.81Z"/><rect class="cls-16" x="328.12" y="253.45" width="14.49" height="3.96" transform="translate(670.73 510.86) rotate(-180)"/></g><g><path class="cls-22" d="M494.23,256.36l2.57-4.12c2.61-4.18,2.82-9.43,.55-13.8l-2.77-5.36-3,5.75c-2.21,4.24-2.1,9.31,.29,13.45l2.36,4.08Z"/><path class="cls-22" d="M494.26,256.24l4.73-1.1c4.8-1.11,8.66-4.67,10.15-9.37l1.83-5.75-6.19,1.94c-4.56,1.43-8.07,5.1-9.3,9.72l-1.22,4.56Z"/><path class="cls-22" d="M494.34,256.24l-4.73-1.1c-4.8-1.11-8.66-4.67-10.15-9.37l-1.83-5.75,6.19,1.94c4.56,1.43,8.07,5.1,9.3,9.72l1.22,4.56Z"/><path class="cls-16" d="M494.2,255.95l-4.1-2.59c-4.16-2.63-6.63-7.27-6.5-12.19l.17-6.03,5.2,3.87c3.83,2.86,5.94,7.47,5.58,12.24l-.35,4.7Z"/><path class="cls-16" d="M494.18,255.95l4.1-2.59c4.16-2.63,6.63-7.27,6.5-12.19l-.17-6.03-5.2,3.87c-3.83,2.86-5.94,7.47-5.58,12.24l.35,4.7Z"/><path class="cls-16" d="M494.24,256.19l-4.8,.69c-4.88,.7-9.76-1.23-12.85-5.07l-3.78-4.7,6.47-.42c4.77-.31,9.37,1.84,12.19,5.7l2.78,3.81Z"/><path class="cls-16" d="M494.1,256.19l4.8,.69c4.88,.7,9.76-1.23,12.85-5.07l3.78-4.7-6.47-.42c-4.77-.31-9.37,1.84-12.19,5.7l-2.78,3.81Z"/><rect class="cls-16" x="486.71" y="253.05" width="14.49" height="3.96" transform="translate(987.9 510.07) rotate(-180)"/></g><path d="M732.19,113.3s12.37-28.11,31.74-27.62c0,0,2.04,.52,5.8,3.74,0,0-11.25-.24-21.33,7.44-10.86,8.26-16.2,16.45-16.2,16.45Z"/><path d="M699.54,111.32c.1,0,.2-.04,.28-.12,.14-.15,.13-.39-.03-.53l-7.42-6.7c-.15-.14-.39-.13-.53,.03-.14,.15-.13,.39,.03,.53l7.42,6.7c.07,.06,.16,.1,.25,.1Z"/><path d="M689.95,108.72c.1,0,.19-.04,.27-.11,.15-.15,.14-.39,0-.53l-10.92-10.69c-.15-.15-.39-.14-.53,0-.15,.15-.14,.39,0,.53l10.92,10.69c.07,.07,.17,.11,.26,.11Z"/><path d="M686.34,111.77c.09,0,.19-.04,.26-.1,.15-.14,.15-.38,.01-.53l-10.04-10.45c-.14-.15-.38-.15-.53-.01-.15,.14-.15,.38-.01,.53l10.04,10.45c.07,.08,.17,.12,.27,.12Z"/><path d="M682.83,115.24c.08,0,.17-.03,.24-.09,.16-.13,.18-.37,.05-.53l-6.43-7.68c-.13-.16-.37-.18-.53-.05-.16,.13-.18,.37-.05,.53l6.43,7.68c.07,.09,.18,.13,.29,.13Z"/><path d="M740.01,204.54c.14,0,.27-.07,.33-.21,.09-.18,.02-.41-.16-.5-.14-.07-14.74-7.36-37.68-4.98-.21,.02-.36,.21-.33,.41,.02,.21,.19,.35,.41,.33,22.73-2.36,37.12,4.83,37.26,4.9,.05,.03,.11,.04,.17,.04Z"/><path d="M728.44,200.89c.05,0,.11-.01,.16-.04,3.08-1.47,6.62-1.94,9.97-1.33,.22,.04,.4-.1,.44-.3,.04-.2-.1-.4-.3-.44-3.51-.64-7.21-.14-10.43,1.39-.19,.09-.27,.31-.18,.5,.06,.13,.2,.21,.34,.21Z"/><path d="M711.7,240.1c.13,0,.25-.06,.32-.18,.11-.18,.05-.41-.13-.51l-24.55-14.75c-.18-.11-.41-.05-.51,.13-.11,.18-.05,.41,.13,.51l24.55,14.75c.06,.04,.13,.05,.19,.05Z"/><path d="M687.32,245.61c.17,0,.33-.12,.37-.3,.04-.2-.09-.4-.29-.44-.02,0-2.58-.6-4.95-4.78-2.98-5.25-1.77-10.1-1.76-10.15,.05-.2-.07-.41-.27-.46-.2-.05-.4,.07-.46,.27-.05,.21-1.29,5.19,1.83,10.71,2.55,4.51,5.34,5.12,5.45,5.14,.03,0,.05,0,.08,0Z"/><path d="M675.77,240.84s.05,0,.08,0l5.38-1.15c.2-.04,.33-.24,.29-.45-.04-.2-.23-.33-.45-.29l-5.38,1.15c-.2,.04-.33,.24-.29,.45,.04,.18,.19,.3,.37,.3Z"/><path d="M670.08,224.34c.19,0,.36-.15,.37-.34,.79-9.03,7-17.31,15.46-20.6,.19-.08,.29-.29,.21-.49-.07-.19-.29-.29-.49-.21-8.71,3.39-15.12,11.92-15.93,21.23-.02,.21,.13,.39,.34,.41,.01,0,.02,0,.03,0Z"/><path d="M679.21,244.09s.09,0,.13-.02l3.99-1.51c.19-.07,.29-.29,.22-.48-.07-.19-.29-.29-.48-.22l-3.99,1.51c-.19,.07-.29,.29-.22,.48,.06,.15,.2,.24,.35,.24Z"/><path d="M682.58,245.87c.05,0,.1,0,.15-.03l2.67-1.17c.19-.08,.28-.3,.19-.49-.08-.19-.3-.28-.49-.19l-2.67,1.17c-.19,.08-.28,.3-.19,.49,.06,.14,.2,.22,.34,.22Z"/><path d="M675.56,235.95s.08,0,.12-.02c1.29-.44,2.63-.74,3.98-.9,.21-.02,.35-.21,.33-.42-.02-.2-.19-.35-.42-.33-1.4,.16-2.79,.48-4.13,.93-.2,.07-.3,.28-.23,.48,.05,.16,.2,.25,.36,.25Z"/><path d="M646.07,75.8c.19,0,.36-.15,.37-.34,.12-1.23,.91-2.38,2.02-2.92,1.11-.54,2.51-.46,3.55,.21,.17,.11,.41,.06,.52-.11,.11-.17,.06-.41-.11-.52-1.26-.81-2.94-.91-4.28-.25-1.34,.65-2.3,2.04-2.44,3.52-.02,.21,.13,.39,.34,.41,.01,0,.02,0,.04,0Z"/><path d="M617.96,83.69c.19,0,.36-.15,.37-.34,.02-.21-.14-.39-.34-.41l-1.7-.14c-.23-.03-.39,.14-.41,.34-.02,.21,.14,.39,.34,.41l1.7,.14s.02,0,.03,0Z"/><path d="M634.82,97.02s4.31-1.68,11.02-8.35c.11-.11-8.88,14.38-8.88,14.38l-2.14-6.04Z"/><path d="M618.34,90.72s.02,0,.03,0c3.36-.26,6.65-1.96,8.81-4.55,.13-.16,.11-.4-.05-.53-.16-.13-.39-.11-.53,.05-2.03,2.44-5.12,4.04-8.29,4.28-.21,.02-.36,.2-.35,.4,.02,.2,.18,.35,.37,.35Z"/><path d="M621.64,73.68c.99,0,1.96-.54,2.48-1.39,.11-.18,.05-.41-.13-.51-.17-.11-.41-.05-.51,.13-.38,.62-1.11,1.03-1.84,1.03h-.03c-.75-.01-1.47-.44-1.83-1.09-.1-.18-.33-.24-.51-.14s-.24,.33-.14,.51c.5,.88,1.47,1.45,2.48,1.47h.04Z"/><g><path class="cls-30" d="M709.14,169.41s-2.13,22.48,13.37,24.3c0,0-6.84-2.13-7.37-24.38l-6,.08Z"/><path d="M742.82,166.96s1.66,27.74-20.46,26.64c0,0,13.69-.95,14.46-26.71l6,.08Z"/></g><path class="cls-12" d="M387.94,235.09v-22.91h1.13v23.03c0,1.83,.56,3.58,1.48,5.13,.37,.62,.59,1.42,.59,2.28,0,2.02-1.2,3.65-2.68,3.65s-2.68-1.63-2.68-3.65c0-.89,.23-1.7,.62-2.33,.95-1.56,1.54-3.34,1.54-5.2Z"/><path class="cls-12" d="M388.8,226.75v-17.63h1.13v17.72c0,1.41,.56,2.76,1.48,3.95,.37,.48,.59,1.09,.59,1.76,0,1.55-1.2,2.81-2.68,2.81-1.48,0-2.68-1.26-2.68-2.81,0-.68,.23-1.31,.62-1.79,.95-1.2,1.54-2.57,1.54-4Z"/><path class="cls-12" d="M442.91,214.56h0c.96,0,1.74,.78,1.74,1.74v5.81h-3.48v-5.81c0-.96,.78-1.74,1.74-1.74Z" transform="translate(885.82 436.67) rotate(180)"/><path class="cls-12" d="M479.9,230.67h0c.96,0,1.74,.78,1.74,1.74v5.81h-3.48v-5.81c0-.96,.78-1.74,1.74-1.74Z" transform="translate(959.8 468.89) rotate(-180)"/><polygon class="cls-31" points="532.56 303.93 412.12 256.87 441.28 304.04 532.56 303.93"/><path class="cls-31" d="M709,303.07l-303.7-46.05h1.67s411.24,23.22,411.24,23.22c3.27,6.13,5.13,13.13,5.13,20.56v2.87s-114.34-.6-114.34-.6Z"/><polygon class="cls-31" points="295.43 303.93 415.59 256.87 386.43 304.04 295.43 303.93"/><path class="cls-31" d="M120.36,303.07l303.7-46.05h-1.67S11.15,280.24,11.15,280.24c-3.27,6.13-5.13,13.13-5.13,20.56v2.87l114.34-.6Z"/><path class="cls-69" d="M751.3,40.42h0c.21,0,.37-.17,.37-.38-.08-9.18-4.47-13.02-5.03-13.48-.38-.56-1.96-1.84-7.57-5.35-7.79-4.87-17.26-3.5-17.36-3.49-.42,.07-10.18,1.79-14.39,5.68-.15,.14-.16,.38-.02,.53,.14,.15,.38,.16,.53,.02,4.04-3.74,13.9-5.47,14-5.49,.08-.01,9.3-1.33,16.84,3.39,5.55,3.47,6.92,4.64,7.25,4.98l-.05,.08,.26,.2s4.71,3.73,4.79,12.93c0,.21,.17,.37,.37,.37Z"/><path class="cls-34" d="M129.23,159.75c.15,0,.29-.09,.35-.24,.07-.19-.02-.41-.22-.48-8.22-3.13-6.13-13.29-6.1-13.39l.05-.23-.19-.14c-2.73-2.09-5.47-7.36-5.16-13.01,.31-5.64,7.44-8.92,7.51-8.95,.19-.08,.27-.31,.19-.5-.08-.19-.31-.27-.5-.19-.31,.14-7.61,3.5-7.95,9.59-.32,5.78,2.45,11.2,5.27,13.5-.27,1.6-1.48,10.94,6.61,14.01,.04,.02,.09,.02,.13,.02Z"/></g></svg>