<?xml version="1.0" encoding="UTF-8"?>
<!DOCTYPE svg PUBLIC "-//W3C//DTD SVG 1.1//EN" "http://www.w3.org/Graphics/SVG/1.1/DTD/svg11.dtd">
<!-- Creator: CorelDRAW -->
<svg xmlns="http://www.w3.org/2000/svg" xml:space="preserve" width="94px" height="94px" style="shape-rendering:geometricPrecision; text-rendering:geometricPrecision; image-rendering:optimizeQuality; fill-rule:evenodd; clip-rule:evenodd"
viewBox="0 0 94 94"
 xmlns:xlink="http://www.w3.org/1999/xlink">
 <defs>
  <style type="text/css">
   <![CDATA[
    .str7 {stroke:#1F1A17;stroke-width:0.590556}
    .str10 {stroke:#FFF500;stroke-width:0.590556}
    .str4 {stroke:#0093DD;stroke-width:0.708667}
    .str0 {stroke:#DA251D;stroke-width:0.708667}
    .str2 {stroke:#E77817;stroke-width:0.708667}
    .str3 {stroke:#EF9BA0;stroke-width:0.708667}
    .str1 {stroke:#F8C300;stroke-width:0.708667}
    .str11 {stroke:#0093DD;stroke-width:0.826779}
    .str5 {stroke:#DA251D;stroke-width:0.826779}
    .str8 {stroke:#E77817;stroke-width:0.826779}
    .str9 {stroke:#EF9BA0;stroke-width:0.826779}
    .str6 {stroke:#F8C300;stroke-width:0.826779}
    .fil0 {fill:none}
    .fil4 {fill:#007CC3}
    .fil1 {fill:#DA251D}
    .fil2 {fill:#FFF500}
    .fil3 {fill:white}
   ]]>
  </style>
 </defs>
 <g id="Layer_x0020_1">
  <metadata id="CorelCorpID_0Corel-Layer"/>
  <g id="_110078912">
   <g>
    <path id="_109943464" class="fil0 str0" d="M30.0286 60.9643c-1.09725,0.825597 -3.49845,0.676777 -3.47956,3.02601 0.0354334,4.5402 1.48111,9.27055 0.905913,13.6974 -0.781896,6.0284 -2.79805,8.30086 -5.49808,12.0166"/>
    <path id="_109944088" class="fil0 str1" d="M30.0286 60.9643c-1.09725,0.825597 -1.2945,2.32207 -1.2756,4.6713 0.0354334,4.5402 -3.5646,3.8705 -4.1398,8.29731 -0.783077,6.0284 2.69648,12.6887 -0.00354334,16.4056"/>
    <path id="_109944256" class="fil0 str2" d="M30.0286 60.9643c-1.09725,0.825597 0.716935,3.17129 0.735833,5.52052 0.0354334,4.5402 0.0200789,5.89375 -0.555123,10.3206 -0.781896,6.0284 -2.38821,11.6682 -5.08823,15.384"/>
    <path id="_109944448" class="fil0 str3" d="M30.0286 60.9643c-1.09725,0.825597 2.0138,5.20044 2.03269,7.54967 0.0354334,4.5402 -2.49923,4.01342 -3.07325,8.44023 -0.783077,6.0284 3.13585,10.0383 0.43583,13.7541"/>
    <path id="_109944472" class="fil0 str4" d="M30.0286 60.9643c-0.549217,3.08152 -1.07836,3.1831 -1.75631,2.9953 -1.12914,-0.314176 -2.66695,-1.43505 -5.37879,9.08866 -0.781896,6.02958 -0.631895,10.3702 -3.33192,14.0859"/>
   </g>
   <path id="_109508600" class="fil0 str5" d="M13.4883 31.0467c-1.1882,0.479532 -3.55515,0.174805 -3.81972,1.80356 -0.513784,3.14766 0.348428,6.54572 -0.758274,9.56347 -1.50592,4.10909 -3.78192,5.51343 -6.91187,7.85912"/>
   <path id="_109508528" class="fil0 str6" d="M13.4883 31.0467c-1.1882,0.479532 -1.56615,1.50001 -1.83191,3.12877 -0.513784,3.14766 -4.00633,2.37994 -5.11303,5.39768 -1.5071,4.10909 1.14095,9.01661 -1.98899,11.3623"/>
   <polygon id="_109508456" class="fil1 str7" points="64.3234,1.94057 72.8368,16.734 81.3479,31.5286 72.7919,46.2972 64.236,61.0659 47.1689,61.0411 30.1006,61.0151 21.5884,46.2216 13.0761,31.427 21.6321,16.6584 30.1892,1.88978 47.2551,1.91458 "/>
   <path id="_109508384" class="fil0 str8" d="M13.4883 31.0467c-1.1882,0.479532 0.328349,2.25711 0.0625989,3.88586 -0.513784,3.14766 -0.693313,4.08429 -1.80002,7.10203 -1.50592,4.11027 -3.78192,7.88156 -6.91187,10.2273"/>
   <path id="_109508312" class="fil0 str9" d="M13.4883 31.0467c-1.1882,0.479532 1.36891,3.77247 1.10434,5.40123 -0.513784,3.14766 -2.96577,2.56892 -4.07248,5.58666 -1.50592,4.11027 1.89923,7.21778 -1.23072,9.56465"/>
   <polygon id="_83000256" class="fil2 str10" points="13.3903,31.2652 30.3392,60.6525 46.9551,31.2085 30.4479,2.31498 "/>
   <path id="_108228368" class="fil0 str11" d="M13.4883 31.0467c-2.44608,5.56894 -2.20041,-3.52798 -8.54417,7.76818 -1.5071,4.11027 -1.88269,7.12919 -5.01264,9.47606"/>
   <polygon id="_108169008" class="fil3 str7" points="47.1181,31.4932 63.9135,60.9265 30.5802,60.4789 "/>
   <polygon id="_109216840" class="fil4 str7" points="47.2126,31.1885 63.9655,2.06813 30.9546,2.2134 "/>
   <line id="_109216768" class="fil0 str7" x1="64.1592" y1="2.05041" x2="30.1514" y2= "61.2052" />
   <line id="_109222152" class="fil0 str7" x1="30.5613" y1="1.80828" x2="64.236" y2= "61.0659" />
   <g>
    <path id="_109943248" class="fil0 str0" d="M64.1734 60.9643c1.09725,0.825597 3.49845,0.676777 3.47956,3.02601 -0.0354334,4.5402 -1.48111,9.27055 -0.905913,13.6974 0.781896,6.0284 2.79805,8.30086 5.49808,12.0166"/>
    <path id="_108227744" class="fil0 str1" d="M64.1734 60.9643c1.09725,0.825597 1.2945,2.32207 1.2756,4.6713 -0.0354334,4.5402 3.5646,3.8705 4.1398,8.29731 0.783077,6.0284 -2.69648,12.6887 0.00354334,16.4056"/>
    <path id="_108228392" class="fil0 str2" d="M64.1734 60.9643c1.09725,0.825597 -0.716935,3.17129 -0.735833,5.52052 -0.0354334,4.5402 -0.0200789,5.89375 0.555123,10.3206 0.781896,6.0284 2.38821,11.6682 5.08823,15.384"/>
    <path id="_109218000" class="fil0 str3" d="M64.1734 60.9643c1.09725,0.825597 -2.0138,5.20044 -2.03269,7.54967 -0.0354334,4.5402 2.49923,4.01342 3.07325,8.44023 0.783077,6.0284 -3.13585,10.0383 -0.43583,13.7541"/>
    <path id="_108228200" class="fil0 str4" d="M64.1734 60.9643c0.549217,3.08152 1.07836,3.1831 1.75631,2.9953 1.12914,-0.314176 2.66695,-1.43505 5.37879,9.08866 0.781896,6.02958 0.631895,10.3702 3.33192,14.0859"/>
   </g>
   <g>
    <path id="_109510784" class="fil0 str5" d="M80.5105 31.0467c1.1882,0.479532 3.55515,0.174805 3.81972,1.80356 0.513784,3.14766 -0.348428,6.54572 0.758274,9.56347 1.50592,4.10909 3.78192,5.51343 6.91187,7.85912"/>
    <path id="_109509992" class="fil0 str6" d="M80.5105 31.0467c1.1882,0.479532 1.56615,1.50001 1.83191,3.12877 0.513784,3.14766 4.00633,2.37994 5.11303,5.39768 1.5071,4.10909 -1.14095,9.01661 1.98899,11.3623"/>
    <path id="_110080376" class="fil0 str8" d="M80.5105 31.0467c1.1882,0.479532 -0.328349,2.25711 -0.0625989,3.88586 0.513784,3.14766 0.693313,4.08429 1.80002,7.10203 1.50592,4.11027 3.78192,7.88156 6.91187,10.2273"/>
    <path id="_109216968" class="fil0 str9" d="M80.5105 31.0467c1.1882,0.479532 -1.36891,3.77247 -1.10434,5.40123 0.513784,3.14766 2.96577,2.56892 4.07248,5.58666 1.50592,4.11027 -1.89923,7.21778 1.23072,9.56465"/>
    <path id="_109511288" class="fil0 str11" d="M80.5105 31.0467c2.44608,5.56894 2.20041,-3.52798 8.54417,7.76818 1.5071,4.11027 1.88269,7.12919 5.01264,9.47606"/>
   </g>
  </g>
 </g>
</svg>
