<?xml version="1.0" encoding="UTF-8"?>
<!DOCTYPE svg PUBLIC "-//W3C//DTD SVG 1.1//EN" "http://www.w3.org/Graphics/SVG/1.1/DTD/svg11.dtd">
<!-- Creator: CorelDRAW -->
<svg xmlns="http://www.w3.org/2000/svg" xml:space="preserve" width="658px" height="658px" style="shape-rendering:geometricPrecision; text-rendering:geometricPrecision; image-rendering:optimizeQuality; fill-rule:evenodd; clip-rule:evenodd"
viewBox="0 0 658 709.999"
 xmlns:xlink="http://www.w3.org/1999/xlink">
 <defs>
  <style type="text/css">
   <![CDATA[
    .str1 {stroke:#007CC3;stroke-width:4.16693}
    .str3 {stroke:#449284;stroke-width:4.16693}
    .str0 {stroke:#DA251D;stroke-width:4.16693}
    .str4 {stroke:#E77817;stroke-width:4.16693}
    .str2 {stroke:#F8C300;stroke-width:4.16693}
    .str10 {stroke:#FFF500;stroke-width:4.16693}
    .str11 {stroke:#0093DD;stroke-width:6.2504}
    .str5 {stroke:#DA251D;stroke-width:6.2504}
    .str8 {stroke:#E77817;stroke-width:6.2504}
    .str9 {stroke:#EF9BA0;stroke-width:6.2504}
    .str6 {stroke:#F8C300;stroke-width:6.2504}
    .str12 {stroke:#1F1A17;stroke-width:10.4162}
    .str7 {stroke:#1F1A17;stroke-width:12.4996}
    .fil0 {fill:none}
    .fil4 {fill:#007CC3}
    .fil1 {fill:#DA251D}
    .fil2 {fill:#FFF500}
    .fil3 {fill:white}
   ]]>
  </style>
 </defs>
 <g id="Layer_x0020_1">
  <metadata id="CorelCorpID_0Corel-Layer"/>
  <g id="_109218696">
   <path id="_109944664" class="fil0 str0" d="M442.613 413.548c-10.2815,10.4528 -1.12087,101.832 1.60394,119.055 9.13938,57.7749 5.72953,136.182 -9.06143,177.594"/>
   <path id="_110076992" class="fil0 str1" d="M207.044 413.548c-10.2815,10.4528 -1.12087,101.832 1.60394,119.055 9.13938,57.7749 5.72953,136.182 -9.06143,177.594"/>
   <path id="_108228656" class="fil0 str2" d="M221.215 413.548c-10.2815,10.4528 -1.12087,101.832 1.60394,119.055 9.13938,57.7749 5.72953,136.182 -9.06143,177.594"/>
   <path id="_109217712" class="fil0 str0" d="M235.386 413.548c-10.2815,10.4528 -1.12087,101.832 1.60394,119.055 9.13938,57.7749 5.72953,136.182 -9.06143,177.594"/>
   <path id="_108228176" class="fil0 str3" d="M249.557 413.548c-10.2815,10.4528 -1.12087,101.832 1.60394,119.055 9.13938,57.7749 5.72953,136.182 -9.06143,177.594"/>
   <path id="_108168312" class="fil0 str4" d="M263.727 413.548c-10.2815,10.4528 -1.12087,101.832 1.60394,119.055 9.13938,57.7749 5.72953,136.182 -9.06143,177.594"/>
   <path id="_109218744" class="fil0 str1" d="M276.865 413.548c-10.2815,10.4528 -1.12087,101.832 1.60394,119.055 9.13938,57.7749 5.72953,136.182 -9.06143,177.594"/>
   <path id="_110079728" class="fil0 str2" d="M291.036 413.548c-10.2815,10.4528 -1.12087,101.832 1.60394,119.055 9.13938,57.7749 5.72953,136.182 -9.06143,177.594"/>
   <path id="_110077016" class="fil0 str0" d="M305.207 413.548c-10.2815,10.4528 -1.12087,101.832 1.60394,119.055 9.13938,57.7749 5.72953,136.182 -9.06143,177.594"/>
   <path id="_110077640" class="fil0 str3" d="M319.378 413.548c-10.2815,10.4528 -1.12087,101.832 1.60394,119.055 9.13938,57.7749 5.72953,136.182 -9.06143,177.594"/>
   <path id="_110078216" class="fil0 str4" d="M333.548 413.548c-10.2815,10.4528 -1.12087,101.832 1.60394,119.055 9.13938,57.7749 5.72953,136.182 -9.06143,177.594"/>
   <path id="_110079464" class="fil0 str1" d="M346.686 413.548c-10.2815,10.4528 -1.12087,101.832 1.60394,119.055 9.13938,57.7749 5.72953,136.182 -9.06143,177.594"/>
   <path id="_109218816" class="fil0 str2" d="M360.857 413.548c-10.2815,10.4528 -1.12087,101.832 1.60394,119.055 9.13938,57.7749 5.72953,136.182 -9.06143,177.594"/>
   <path id="_110080448" class="fil0 str0" d="M375.028 413.548c-10.2815,10.4528 -1.12087,101.832 1.60394,119.055 9.13938,57.7749 5.72953,136.182 -9.06143,177.594"/>
   <path id="_110080472" class="fil0 str3" d="M389.198 413.548c-10.2815,10.4528 -1.12087,101.832 1.60394,119.055 9.13938,57.7749 5.72953,136.182 -9.06143,177.594"/>
   <path id="_110077832" class="fil0 str4" d="M403.369 413.548c-10.2815,10.4528 -1.12087,101.832 1.60394,119.055 9.13938,57.7749 5.72953,136.182 -9.06143,177.594"/>
   <path id="_109942960" class="fil0 str1" d="M416.507 413.548c-10.2815,10.4528 -1.12087,101.832 1.60394,119.055 9.13938,57.7749 5.72953,136.182 -9.06143,177.594"/>
   <path id="_109217760" class="fil0 str2" d="M430.678 413.548c-10.2815,10.4528 -1.12087,101.832 1.60394,119.055 9.13938,57.7749 5.72953,136.182 -9.06143,177.594"/>
   <path id="_109218864" class="fil0 str5" d="M92.8666 204.591c-8.13662,3.27993 -24.3378,1.18937 -26.1567,12.3425 -3.51733,21.5551 2.38819,44.8276 -5.18741,65.491 -10.3158,28.1422 -25.9016,37.754 -47.3351,53.8194"/>
   <path id="_108227648" class="fil0 str6" d="M92.8666 204.591c-8.13662,3.27993 -10.7209,10.2673 -12.5398,21.4205 -3.51733,21.5551 -27.4394,16.2969 -35.015,36.9603 -10.3158,28.1422 7.81654,61.7457 -13.6169,77.8111"/>
   <polygon id="_108762928" class="fil1 str7" points="440.976,5.27599 499.264,106.58 557.552,207.885 498.962,309.015 440.375,410.145 323.498,409.972 206.623,409.797 148.335,308.492 90.0474,207.188 148.637,106.058 207.225,4.92756 324.101,5.10119 "/>
   <path id="_109944496" class="fil0 str8" d="M92.8666 204.591c-8.13662,3.27993 2.24764,15.4547 0.428741,26.6079 -3.51733,21.5551 -4.74449,27.9685 -12.3201,48.6319 -10.3158,28.1422 -25.9016,53.9646 -47.3351,70.03"/>
   <path id="_109943176" class="fil0 str9" d="M92.8666 204.591c-8.13662,3.27993 9.38033,25.8296 7.56143,36.9827 -3.51733,21.5551 -20.3067,17.5937 -27.8823,38.2571 -10.3158,28.1422 13.004,49.4256 -8.42954,65.491"/>
   <polygon id="_108228128" class="fil2 str10" points="94.3371,204.161 210.245,407.202 326.619,204.939 210.044,2.33032 "/>
   <path id="_110079704" class="fil0 str11" d="M92.8666 204.591c-16.7457,38.1343 -15.0662,-24.163 -58.5072,53.1934 -10.3158,28.1422 -12.887,48.8186 -34.3205,64.8839"/>
   <polygon id="_108228416" class="fil3" points="320.11,204.939 375.21,305.537 430.31,406.133 320.11,406.133 209.909,406.133 265.009,305.537 "/>
   <polygon id="_109216672" class="fil4" points="324.848,199.922 433.316,11.4484 211.575,10.4197 "/>
   <line id="_109218888" class="fil0 str12" x1="440.194" y1="8.33032" x2="207.044" y2= "413.548" />
   <line id="_108228896" class="fil0 str12" x1="207.143" y1="-0.199607" x2="434.194" y2= "407.548" />
   <g>
    <path id="_108227816" class="fil0 str5" d="M565.132 204.591c8.13662,3.27993 24.3378,1.18937 26.1567,12.3425 3.51733,21.5551 -2.38819,44.8276 5.18741,65.491 10.3158,28.1422 25.9016,37.754 47.3351,53.8194"/>
    <path id="_109222728" class="fil0 str6" d="M565.132 204.591c8.13662,3.27993 10.7209,10.2673 12.5398,21.4205 3.51733,21.5551 27.4394,16.2969 35.015,36.9603 10.3158,28.1422 -7.81654,61.7457 13.6169,77.8111"/>
    <path id="_109222080" class="fil0 str8" d="M565.132 204.591c8.13662,3.27993 -2.24764,15.4547 -0.428741,26.6079 3.51733,21.5551 4.74449,27.9685 12.3201,48.6319 10.3158,28.1422 25.9016,53.9646 47.3351,70.03"/>
    <path id="_109224048" class="fil0 str9" d="M565.132 204.591c8.13662,3.27993 -9.38033,25.8296 -7.56143,36.9827 3.51733,21.5551 20.3067,17.5937 27.8823,38.2571 10.3158,28.1422 -13.004,49.4256 8.42954,65.491"/>
    <path id="_109222344" class="fil0 str11" d="M565.132 204.591c16.7457,38.1343 15.0662,-24.163 58.5072,53.1934 10.3158,28.1422 12.887,48.8186 34.3205,64.8839"/>
   </g>
  </g>
 </g>
</svg>
